<svg xmlns="http://www.w3.org/2000/svg" xmlns:xlink="http://www.w3.org/1999/xlink" width="500" zoomAndPan="magnify" viewBox="0 0 375 374.999991" height="500" preserveAspectRatio="xMidYMid meet" version="1.0"><defs><clipPath id="1dc72c4981"><path d="M 0 343 L 33 343 L 33 347.671875 L 0 347.671875 Z M 0 343 " clip-rule="nonzero"/></clipPath><clipPath id="d3fe98c949"><path d="M 342 343 L 375 343 L 375 347.671875 L 342 347.671875 Z M 342 343 " clip-rule="nonzero"/></clipPath><clipPath id="25539d1a4c"><path d="M 44 343 L 332 343 L 332 347.671875 L 44 347.671875 Z M 44 343 " clip-rule="nonzero"/></clipPath><clipPath id="2e283f017e"><path d="M 0 27.421875 L 375 27.421875 L 375 331 L 0 331 Z M 0 27.421875 " clip-rule="nonzero"/></clipPath></defs><path fill="#cecece" d="M 37.410156 29.835938 L 337.902344 29.835938 C 338.683594 29.835938 339.464844 29.875 340.246094 29.949219 C 341.023438 30.027344 341.796875 30.140625 342.566406 30.292969 C 343.332031 30.445312 344.089844 30.636719 344.839844 30.863281 C 345.589844 31.09375 346.324219 31.355469 347.046875 31.65625 C 347.773438 31.953125 348.476562 32.289062 349.167969 32.65625 C 349.859375 33.027344 350.53125 33.429688 351.179688 33.863281 C 351.832031 34.300781 352.460938 34.765625 353.066406 35.261719 C 353.671875 35.757812 354.25 36.285156 354.804688 36.835938 C 355.355469 37.390625 355.882812 37.972656 356.378906 38.578125 C 356.875 39.179688 357.339844 39.808594 357.773438 40.460938 C 358.210938 41.113281 358.613281 41.78125 358.980469 42.472656 C 359.351562 43.164062 359.683594 43.871094 359.984375 44.59375 C 360.285156 45.316406 360.546875 46.054688 360.773438 46.804688 C 361 47.554688 361.191406 48.3125 361.34375 49.078125 C 361.496094 49.847656 361.613281 50.621094 361.6875 51.398438 C 361.765625 52.179688 361.804688 52.960938 361.804688 53.742188 L 361.804688 304.390625 C 361.804688 305.171875 361.765625 305.953125 361.6875 306.734375 C 361.613281 307.511719 361.496094 308.285156 361.34375 309.054688 C 361.191406 309.820312 361 310.578125 360.773438 311.328125 C 360.546875 312.078125 360.285156 312.816406 359.984375 313.539062 C 359.683594 314.261719 359.351562 314.96875 358.980469 315.660156 C 358.613281 316.351562 358.210938 317.019531 357.773438 317.671875 C 357.339844 318.324219 356.875 318.953125 356.378906 319.554688 C 355.882812 320.160156 355.355469 320.742188 354.804688 321.296875 C 354.25 321.847656 353.667969 322.375 353.066406 322.871094 C 352.460938 323.367188 351.832031 323.832031 351.179688 324.269531 C 350.53125 324.703125 349.859375 325.105469 349.167969 325.472656 C 348.476562 325.84375 347.773438 326.179688 347.046875 326.476562 C 346.324219 326.777344 345.589844 327.039062 344.839844 327.269531 C 344.089844 327.496094 343.332031 327.683594 342.566406 327.839844 C 341.796875 327.992188 341.023438 328.105469 340.246094 328.183594 C 339.464844 328.257812 338.683594 328.296875 337.902344 328.296875 L 37.410156 328.296875 C 36.625 328.296875 35.84375 328.257812 35.066406 328.183594 C 34.285156 328.105469 33.511719 327.992188 32.746094 327.839844 C 31.976562 327.683594 31.21875 327.496094 30.46875 327.269531 C 29.722656 327.039062 28.984375 326.777344 28.261719 326.476562 C 27.539062 326.179688 26.832031 325.84375 26.140625 325.472656 C 25.449219 325.105469 24.78125 324.703125 24.128906 324.269531 C 23.480469 323.832031 22.851562 323.367188 22.246094 322.871094 C 21.640625 322.375 21.0625 321.847656 20.507812 321.296875 C 19.953125 320.742188 19.429688 320.160156 18.933594 319.554688 C 18.4375 318.953125 17.96875 318.324219 17.535156 317.671875 C 17.101562 317.019531 16.699219 316.351562 16.328125 315.660156 C 15.960938 314.96875 15.625 314.261719 15.328125 313.539062 C 15.027344 312.816406 14.761719 312.078125 14.535156 311.328125 C 14.308594 310.578125 14.117188 309.820312 13.964844 309.054688 C 13.8125 308.285156 13.699219 307.511719 13.621094 306.734375 C 13.546875 305.953125 13.507812 305.171875 13.507812 304.390625 L 13.507812 53.742188 C 13.507812 52.960938 13.546875 52.179688 13.621094 51.398438 C 13.699219 50.621094 13.8125 49.847656 13.964844 49.078125 C 14.117188 48.3125 14.308594 47.554688 14.535156 46.804688 C 14.761719 46.054688 15.027344 45.316406 15.328125 44.59375 C 15.625 43.871094 15.960938 43.164062 16.328125 42.472656 C 16.699219 41.78125 17.101562 41.113281 17.535156 40.460938 C 17.96875 39.808594 18.4375 39.179688 18.933594 38.578125 C 19.429688 37.972656 19.953125 37.390625 20.507812 36.835938 C 21.0625 36.285156 21.640625 35.757812 22.246094 35.261719 C 22.851562 34.765625 23.480469 34.300781 24.128906 33.863281 C 24.78125 33.429688 25.449219 33.027344 26.140625 32.65625 C 26.832031 32.289062 27.539062 31.953125 28.261719 31.65625 C 28.984375 31.355469 29.722656 31.09375 30.46875 30.863281 C 31.21875 30.636719 31.976562 30.445312 32.746094 30.292969 C 33.511719 30.140625 34.285156 30.027344 35.066406 29.949219 C 35.84375 29.875 36.625 29.835938 37.410156 29.835938 Z M 37.410156 29.835938 " fill-opacity="1" fill-rule="nonzero"/><path fill="#afafaf" d="M 29.101562 304.390625 L 29.101562 53.742188 C 29.101562 52.960938 29.140625 52.179688 29.214844 51.398438 C 29.292969 50.621094 29.40625 49.847656 29.5625 49.078125 C 29.714844 48.3125 29.902344 47.550781 30.128906 46.804688 C 30.359375 46.054688 30.621094 45.316406 30.921875 44.59375 C 31.21875 43.871094 31.554688 43.164062 31.925781 42.472656 C 32.292969 41.78125 32.695312 41.113281 33.128906 40.460938 C 33.566406 39.808594 34.03125 39.179688 34.527344 38.574219 C 35.023438 37.96875 35.550781 37.390625 36.101562 36.835938 C 36.65625 36.285156 37.234375 35.757812 37.839844 35.261719 C 38.445312 34.765625 39.074219 34.300781 39.726562 33.863281 C 40.375 33.429688 41.046875 33.027344 41.738281 32.65625 C 42.425781 32.289062 43.132812 31.953125 43.859375 31.65625 C 44.582031 31.355469 45.316406 31.089844 46.066406 30.863281 C 46.816406 30.636719 47.574219 30.445312 48.339844 30.292969 C 49.109375 30.140625 49.882812 30.027344 50.660156 29.949219 C 51.441406 29.875 52.222656 29.835938 53.003906 29.835938 L 37.410156 29.835938 C 36.628906 29.835938 35.847656 29.875 35.066406 29.949219 C 34.289062 30.027344 33.515625 30.140625 32.746094 30.292969 C 31.980469 30.445312 31.21875 30.636719 30.472656 30.863281 C 29.722656 31.089844 28.984375 31.355469 28.261719 31.65625 C 27.539062 31.953125 26.832031 32.289062 26.140625 32.65625 C 25.453125 33.027344 24.78125 33.429688 24.128906 33.863281 C 23.480469 34.300781 22.851562 34.765625 22.246094 35.261719 C 21.640625 35.757812 21.0625 36.285156 20.507812 36.835938 C 19.953125 37.390625 19.429688 37.96875 18.933594 38.574219 C 18.4375 39.179688 17.96875 39.808594 17.535156 40.460938 C 17.101562 41.113281 16.699219 41.78125 16.328125 42.472656 C 15.960938 43.164062 15.625 43.871094 15.328125 44.59375 C 15.027344 45.316406 14.761719 46.054688 14.535156 46.804688 C 14.308594 47.550781 14.117188 48.3125 13.964844 49.078125 C 13.8125 49.847656 13.699219 50.621094 13.621094 51.398438 C 13.546875 52.179688 13.507812 52.960938 13.507812 53.742188 L 13.507812 304.390625 C 13.507812 305.171875 13.546875 305.953125 13.621094 306.734375 C 13.699219 307.511719 13.8125 308.285156 13.964844 309.054688 C 14.117188 309.820312 14.308594 310.582031 14.535156 311.328125 C 14.761719 312.078125 15.027344 312.816406 15.328125 313.539062 C 15.625 314.261719 15.960938 314.96875 16.328125 315.660156 C 16.699219 316.351562 17.101562 317.019531 17.535156 317.671875 C 17.96875 318.324219 18.4375 318.953125 18.933594 319.558594 C 19.429688 320.164062 19.953125 320.742188 20.507812 321.296875 C 21.0625 321.847656 21.640625 322.375 22.246094 322.871094 C 22.851562 323.367188 23.480469 323.832031 24.128906 324.269531 C 24.78125 324.703125 25.453125 325.105469 26.140625 325.476562 C 26.832031 325.84375 27.539062 326.179688 28.261719 326.476562 C 28.984375 326.777344 29.722656 327.042969 30.472656 327.269531 C 31.21875 327.496094 31.980469 327.6875 32.746094 327.839844 C 33.515625 327.992188 34.289062 328.105469 35.066406 328.183594 C 35.847656 328.257812 36.628906 328.296875 37.410156 328.296875 L 53.003906 328.296875 C 52.222656 328.296875 51.441406 328.257812 50.660156 328.183594 C 49.882812 328.105469 49.109375 327.992188 48.339844 327.839844 C 47.574219 327.6875 46.816406 327.496094 46.066406 327.269531 C 45.316406 327.042969 44.582031 326.777344 43.859375 326.476562 C 43.132812 326.179688 42.425781 325.84375 41.738281 325.476562 C 41.046875 325.105469 40.375 324.703125 39.726562 324.269531 C 39.074219 323.832031 38.445312 323.367188 37.839844 322.871094 C 37.234375 322.375 36.65625 321.847656 36.101562 321.296875 C 35.550781 320.742188 35.023438 320.164062 34.527344 319.558594 C 34.03125 318.953125 33.566406 318.324219 33.128906 317.671875 C 32.695312 317.019531 32.292969 316.351562 31.925781 315.660156 C 31.554688 314.96875 31.21875 314.261719 30.921875 313.539062 C 30.621094 312.816406 30.359375 312.078125 30.128906 311.328125 C 29.902344 310.582031 29.714844 309.820312 29.5625 309.054688 C 29.40625 308.285156 29.292969 307.511719 29.214844 306.734375 C 29.140625 305.953125 29.101562 305.171875 29.101562 304.390625 Z M 29.101562 304.390625 " fill-opacity="1" fill-rule="nonzero"/><path fill="#e2e2e2" d="M 346.210938 304.390625 L 346.210938 53.742188 C 346.210938 52.960938 346.171875 52.179688 346.09375 51.398438 C 346.019531 50.621094 345.902344 49.847656 345.75 49.078125 C 345.597656 48.3125 345.410156 47.554688 345.179688 46.804688 C 344.953125 46.054688 344.691406 45.316406 344.390625 44.59375 C 344.089844 43.871094 343.757812 43.164062 343.386719 42.472656 C 343.019531 41.78125 342.617188 41.113281 342.183594 40.460938 C 341.746094 39.808594 341.28125 39.179688 340.785156 38.578125 C 340.289062 37.972656 339.761719 37.390625 339.210938 36.835938 C 338.65625 36.285156 338.078125 35.757812 337.472656 35.261719 C 336.867188 34.765625 336.238281 34.300781 335.585938 33.863281 C 334.9375 33.429688 334.265625 33.027344 333.574219 32.65625 C 332.886719 32.289062 332.179688 31.953125 331.457031 31.65625 C 330.730469 31.355469 329.996094 31.09375 329.246094 30.863281 C 328.496094 30.636719 327.738281 30.445312 326.972656 30.292969 C 326.203125 30.140625 325.429688 30.027344 324.652344 29.949219 C 323.871094 29.875 323.089844 29.835938 322.308594 29.835938 L 337.902344 29.835938 C 338.6875 29.835938 339.46875 29.875 340.246094 29.949219 C 341.023438 30.027344 341.796875 30.140625 342.566406 30.292969 C 343.335938 30.445312 344.09375 30.636719 344.839844 30.863281 C 345.589844 31.09375 346.328125 31.355469 347.050781 31.65625 C 347.773438 31.953125 348.480469 32.289062 349.171875 32.65625 C 349.859375 33.027344 350.53125 33.429688 351.183594 33.863281 C 351.832031 34.300781 352.460938 34.765625 353.066406 35.261719 C 353.671875 35.757812 354.25 36.285156 354.804688 36.835938 C 355.359375 37.390625 355.882812 37.972656 356.378906 38.578125 C 356.875 39.179688 357.34375 39.808594 357.777344 40.460938 C 358.210938 41.113281 358.613281 41.78125 358.984375 42.472656 C 359.351562 43.164062 359.6875 43.871094 359.984375 44.59375 C 360.285156 45.316406 360.546875 46.054688 360.777344 46.804688 C 361.003906 47.554688 361.191406 48.3125 361.347656 49.078125 C 361.5 49.847656 361.613281 50.621094 361.691406 51.398438 C 361.765625 52.179688 361.804688 52.960938 361.804688 53.742188 L 361.804688 304.390625 C 361.804688 305.171875 361.765625 305.953125 361.691406 306.734375 C 361.613281 307.511719 361.5 308.285156 361.347656 309.054688 C 361.191406 309.820312 361.003906 310.578125 360.777344 311.328125 C 360.546875 312.078125 360.285156 312.816406 359.984375 313.539062 C 359.6875 314.261719 359.351562 314.96875 358.984375 315.660156 C 358.613281 316.351562 358.210938 317.019531 357.777344 317.671875 C 357.34375 318.324219 356.875 318.953125 356.378906 319.554688 C 355.882812 320.160156 355.359375 320.742188 354.804688 321.296875 C 354.25 321.847656 353.671875 322.375 353.066406 322.871094 C 352.460938 323.367188 351.832031 323.832031 351.183594 324.269531 C 350.53125 324.703125 349.859375 325.105469 349.171875 325.472656 C 348.480469 325.84375 347.773438 326.179688 347.050781 326.476562 C 346.328125 326.777344 345.589844 327.039062 344.839844 327.269531 C 344.09375 327.496094 343.335938 327.683594 342.566406 327.839844 C 341.796875 327.992188 341.023438 328.105469 340.246094 328.183594 C 339.46875 328.257812 338.6875 328.296875 337.902344 328.296875 L 322.308594 328.296875 C 323.089844 328.296875 323.871094 328.257812 324.652344 328.183594 C 325.429688 328.105469 326.203125 327.992188 326.972656 327.839844 C 327.738281 327.683594 328.496094 327.496094 329.246094 327.269531 C 329.996094 327.039062 330.730469 326.777344 331.457031 326.476562 C 332.179688 326.179688 332.886719 325.84375 333.574219 325.472656 C 334.265625 325.105469 334.9375 324.703125 335.585938 324.269531 C 336.238281 323.832031 336.867188 323.367188 337.472656 322.871094 C 338.078125 322.375 338.65625 321.847656 339.210938 321.296875 C 339.761719 320.742188 340.289062 320.160156 340.785156 319.554688 C 341.28125 318.953125 341.746094 318.324219 342.183594 317.671875 C 342.617188 317.019531 343.019531 316.351562 343.386719 315.660156 C 343.757812 314.96875 344.089844 314.261719 344.390625 313.539062 C 344.691406 312.816406 344.953125 312.078125 345.179688 311.328125 C 345.410156 310.578125 345.597656 309.820312 345.75 309.054688 C 345.902344 308.285156 346.019531 307.511719 346.09375 306.734375 C 346.171875 305.953125 346.210938 305.171875 346.210938 304.390625 Z M 346.210938 304.390625 " fill-opacity="1" fill-rule="nonzero"/><path fill="#f8af23" d="M 361.804688 53.742188 C 361.804688 52.960938 361.765625 52.179688 361.691406 51.398438 C 361.613281 50.621094 361.5 49.847656 361.347656 49.078125 C 361.191406 48.3125 361.003906 47.554688 360.777344 46.804688 C 360.546875 46.054688 360.285156 45.316406 359.984375 44.59375 C 359.6875 43.871094 359.351562 43.164062 358.984375 42.472656 C 358.613281 41.78125 358.210938 41.113281 357.777344 40.460938 C 357.34375 39.808594 356.875 39.179688 356.378906 38.578125 C 355.882812 37.972656 355.359375 37.390625 354.804688 36.835938 C 354.25 36.285156 353.671875 35.757812 353.066406 35.261719 C 352.460938 34.765625 351.832031 34.300781 351.183594 33.863281 C 350.53125 33.429688 349.859375 33.027344 349.171875 32.65625 C 348.480469 32.289062 347.773438 31.953125 347.050781 31.65625 C 346.328125 31.355469 345.589844 31.09375 344.839844 30.863281 C 344.09375 30.636719 343.335938 30.445312 342.566406 30.292969 C 341.796875 30.140625 341.023438 30.027344 340.246094 29.949219 C 339.46875 29.875 338.6875 29.835938 337.902344 29.835938 L 37.410156 29.835938 C 36.628906 29.835938 35.847656 29.875 35.066406 29.949219 C 34.289062 30.027344 33.515625 30.140625 32.746094 30.292969 C 31.980469 30.445312 31.21875 30.636719 30.472656 30.863281 C 29.722656 31.089844 28.984375 31.355469 28.261719 31.65625 C 27.539062 31.953125 26.832031 32.289062 26.140625 32.65625 C 25.453125 33.027344 24.78125 33.429688 24.128906 33.863281 C 23.480469 34.300781 22.851562 34.765625 22.246094 35.261719 C 21.640625 35.757812 21.0625 36.285156 20.507812 36.835938 C 19.953125 37.390625 19.429688 37.96875 18.933594 38.574219 C 18.4375 39.179688 17.96875 39.808594 17.535156 40.460938 C 17.101562 41.113281 16.699219 41.78125 16.328125 42.472656 C 15.960938 43.164062 15.625 43.871094 15.328125 44.59375 C 15.027344 45.316406 14.761719 46.054688 14.535156 46.804688 C 14.308594 47.550781 14.117188 48.3125 13.964844 49.078125 C 13.8125 49.847656 13.699219 50.621094 13.621094 51.398438 C 13.546875 52.179688 13.507812 52.960938 13.507812 53.742188 L 13.507812 95.351562 L 361.804688 95.351562 Z M 361.804688 53.742188 " fill-opacity="1" fill-rule="nonzero"/><path fill="#f87023" d="M 53.003906 29.835938 L 37.410156 29.835938 C 36.628906 29.835938 35.847656 29.875 35.066406 29.949219 C 34.289062 30.027344 33.515625 30.140625 32.746094 30.292969 C 31.980469 30.445312 31.21875 30.636719 30.472656 30.863281 C 29.722656 31.089844 28.984375 31.355469 28.261719 31.65625 C 27.539062 31.953125 26.832031 32.289062 26.140625 32.65625 C 25.453125 33.027344 24.78125 33.429688 24.128906 33.863281 C 23.480469 34.300781 22.851562 34.765625 22.246094 35.261719 C 21.640625 35.757812 21.0625 36.285156 20.507812 36.835938 C 19.953125 37.390625 19.429688 37.96875 18.933594 38.574219 C 18.4375 39.179688 17.96875 39.808594 17.535156 40.460938 C 17.101562 41.113281 16.699219 41.78125 16.328125 42.472656 C 15.960938 43.164062 15.625 43.871094 15.328125 44.59375 C 15.027344 45.316406 14.761719 46.054688 14.535156 46.804688 C 14.308594 47.550781 14.117188 48.3125 13.964844 49.078125 C 13.8125 49.847656 13.699219 50.621094 13.621094 51.398438 C 13.546875 52.179688 13.507812 52.960938 13.507812 53.742188 L 13.507812 95.351562 L 29.101562 95.351562 L 29.101562 53.742188 C 29.101562 52.960938 29.140625 52.179688 29.214844 51.398438 C 29.292969 50.621094 29.40625 49.847656 29.5625 49.078125 C 29.714844 48.3125 29.902344 47.550781 30.128906 46.804688 C 30.359375 46.054688 30.621094 45.316406 30.921875 44.59375 C 31.21875 43.871094 31.554688 43.164062 31.925781 42.472656 C 32.292969 41.78125 32.695312 41.113281 33.128906 40.460938 C 33.566406 39.808594 34.03125 39.179688 34.527344 38.574219 C 35.023438 37.96875 35.550781 37.390625 36.101562 36.835938 C 36.65625 36.285156 37.234375 35.757812 37.839844 35.261719 C 38.445312 34.765625 39.074219 34.300781 39.726562 33.863281 C 40.375 33.429688 41.046875 33.027344 41.738281 32.65625 C 42.425781 32.289062 43.132812 31.953125 43.859375 31.65625 C 44.582031 31.355469 45.316406 31.089844 46.066406 30.863281 C 46.816406 30.636719 47.574219 30.445312 48.339844 30.292969 C 49.109375 30.140625 49.882812 30.027344 50.660156 29.949219 C 51.441406 29.875 52.222656 29.835938 53.003906 29.835938 Z M 53.003906 29.835938 " fill-opacity="1" fill-rule="nonzero"/><path fill="#f8d323" d="M 322.308594 29.835938 L 337.902344 29.835938 C 338.683594 29.835938 339.464844 29.875 340.246094 29.949219 C 341.023438 30.027344 341.796875 30.140625 342.566406 30.292969 C 343.332031 30.445312 344.089844 30.636719 344.839844 30.863281 C 345.589844 31.09375 346.324219 31.355469 347.046875 31.65625 C 347.773438 31.953125 348.476562 32.289062 349.167969 32.65625 C 349.859375 33.027344 350.53125 33.429688 351.179688 33.863281 C 351.832031 34.300781 352.460938 34.765625 353.066406 35.261719 C 353.671875 35.757812 354.25 36.285156 354.804688 36.835938 C 355.355469 37.390625 355.882812 37.972656 356.378906 38.578125 C 356.875 39.179688 357.339844 39.808594 357.773438 40.460938 C 358.210938 41.113281 358.613281 41.78125 358.980469 42.472656 C 359.351562 43.164062 359.683594 43.871094 359.984375 44.59375 C 360.285156 45.316406 360.546875 46.054688 360.773438 46.804688 C 361 47.554688 361.191406 48.3125 361.34375 49.078125 C 361.496094 49.847656 361.613281 50.621094 361.6875 51.398438 C 361.765625 52.179688 361.804688 52.960938 361.804688 53.742188 L 361.804688 95.351562 L 346.207031 95.351562 L 346.207031 53.742188 C 346.207031 52.960938 346.171875 52.179688 346.09375 51.398438 C 346.015625 50.621094 345.902344 49.847656 345.75 49.078125 C 345.597656 48.3125 345.40625 47.554688 345.179688 46.804688 C 344.953125 46.054688 344.6875 45.316406 344.390625 44.59375 C 344.089844 43.871094 343.753906 43.164062 343.386719 42.472656 C 343.015625 41.78125 342.617188 41.113281 342.179688 40.460938 C 341.746094 39.808594 341.28125 39.179688 340.785156 38.578125 C 340.285156 37.972656 339.761719 37.390625 339.207031 36.835938 C 338.65625 36.285156 338.074219 35.757812 337.46875 35.261719 C 336.863281 34.765625 336.238281 34.300781 335.585938 33.863281 C 334.933594 33.429688 334.265625 33.027344 333.574219 32.65625 C 332.882812 32.289062 332.175781 31.953125 331.453125 31.65625 C 330.730469 31.355469 329.996094 31.09375 329.246094 30.863281 C 328.496094 30.636719 327.738281 30.445312 326.96875 30.292969 C 326.203125 30.140625 325.429688 30.027344 324.648438 29.949219 C 323.871094 29.875 323.089844 29.835938 322.308594 29.835938 Z M 322.308594 29.835938 " fill-opacity="1" fill-rule="nonzero"/><path fill="#f46275" d="M 67.089844 62.59375 C 67.089844 63.308594 67.019531 64.019531 66.882812 64.722656 C 66.742188 65.425781 66.535156 66.109375 66.261719 66.773438 C 65.984375 67.433594 65.648438 68.0625 65.25 68.660156 C 64.851562 69.253906 64.402344 69.808594 63.894531 70.3125 C 63.386719 70.820312 62.835938 71.273438 62.238281 71.671875 C 61.644531 72.070312 61.015625 72.40625 60.351562 72.679688 C 59.691406 72.957031 59.007812 73.164062 58.304688 73.304688 C 57.601562 73.441406 56.890625 73.511719 56.175781 73.511719 C 55.457031 73.511719 54.75 73.441406 54.046875 73.304688 C 53.34375 73.164062 52.660156 72.957031 51.996094 72.679688 C 51.335938 72.40625 50.707031 72.070312 50.109375 71.671875 C 49.515625 71.273438 48.964844 70.820312 48.457031 70.3125 C 47.949219 69.808594 47.496094 69.253906 47.097656 68.660156 C 46.699219 68.0625 46.363281 67.433594 46.089844 66.773438 C 45.816406 66.109375 45.609375 65.425781 45.46875 64.722656 C 45.328125 64.019531 45.257812 63.308594 45.257812 62.59375 C 45.257812 61.875 45.328125 61.167969 45.46875 60.464844 C 45.609375 59.757812 45.816406 59.078125 46.089844 58.414062 C 46.363281 57.753906 46.699219 57.121094 47.097656 56.527344 C 47.496094 55.929688 47.949219 55.378906 48.457031 54.871094 C 48.964844 54.363281 49.515625 53.914062 50.109375 53.515625 C 50.707031 53.117188 51.335938 52.78125 51.996094 52.503906 C 52.660156 52.230469 53.34375 52.023438 54.046875 51.882812 C 54.75 51.742188 55.457031 51.671875 56.175781 51.671875 C 56.890625 51.671875 57.601562 51.742188 58.304688 51.882812 C 59.007812 52.023438 59.691406 52.230469 60.351562 52.503906 C 61.015625 52.78125 61.644531 53.117188 62.238281 53.515625 C 62.835938 53.914062 63.386719 54.363281 63.894531 54.871094 C 64.402344 55.378906 64.851562 55.929688 65.25 56.527344 C 65.648438 57.121094 65.984375 57.753906 66.261719 58.414062 C 66.535156 59.078125 66.742188 59.757812 66.882812 60.464844 C 67.019531 61.167969 67.089844 61.875 67.089844 62.59375 Z M 67.089844 62.59375 " fill-opacity="1" fill-rule="nonzero"/><path fill="#f46275" d="M 109.136719 62.59375 C 109.136719 63.308594 109.066406 64.019531 108.925781 64.722656 C 108.789062 65.425781 108.582031 66.109375 108.304688 66.773438 C 108.03125 67.433594 107.695312 68.0625 107.296875 68.660156 C 106.898438 69.253906 106.445312 69.808594 105.941406 70.3125 C 105.433594 70.820312 104.882812 71.273438 104.285156 71.671875 C 103.691406 72.070312 103.0625 72.40625 102.398438 72.679688 C 101.738281 72.957031 101.054688 73.164062 100.351562 73.304688 C 99.648438 73.441406 98.9375 73.511719 98.222656 73.511719 C 97.503906 73.511719 96.792969 73.441406 96.089844 73.304688 C 95.386719 73.164062 94.707031 72.957031 94.042969 72.679688 C 93.382812 72.40625 92.753906 72.070312 92.15625 71.671875 C 91.558594 71.273438 91.007812 70.820312 90.503906 70.3125 C 89.996094 69.808594 89.542969 69.253906 89.144531 68.660156 C 88.746094 68.0625 88.410156 67.433594 88.136719 66.773438 C 87.863281 66.109375 87.65625 65.425781 87.515625 64.722656 C 87.375 64.019531 87.304688 63.308594 87.304688 62.59375 C 87.304688 61.875 87.375 61.167969 87.515625 60.464844 C 87.65625 59.757812 87.863281 59.078125 88.136719 58.414062 C 88.410156 57.753906 88.746094 57.121094 89.144531 56.527344 C 89.542969 55.929688 89.996094 55.378906 90.503906 54.871094 C 91.007812 54.363281 91.558594 53.914062 92.15625 53.515625 C 92.753906 53.117188 93.382812 52.78125 94.042969 52.503906 C 94.707031 52.230469 95.386719 52.023438 96.089844 51.882812 C 96.792969 51.742188 97.503906 51.671875 98.222656 51.671875 C 98.9375 51.671875 99.648438 51.742188 100.351562 51.882812 C 101.054688 52.023438 101.738281 52.230469 102.398438 52.503906 C 103.0625 52.78125 103.691406 53.117188 104.285156 53.515625 C 104.882812 53.914062 105.433594 54.363281 105.941406 54.871094 C 106.445312 55.378906 106.898438 55.929688 107.296875 56.527344 C 107.695312 57.121094 108.03125 57.753906 108.304688 58.414062 C 108.582031 59.078125 108.789062 59.757812 108.925781 60.464844 C 109.066406 61.167969 109.136719 61.875 109.136719 62.59375 Z M 109.136719 62.59375 " fill-opacity="1" fill-rule="nonzero"/><path fill="#f46275" d="M 151.183594 62.59375 C 151.183594 63.308594 151.113281 64.019531 150.972656 64.722656 C 150.832031 65.425781 150.625 66.109375 150.351562 66.773438 C 150.078125 67.433594 149.742188 68.0625 149.34375 68.660156 C 148.945312 69.253906 148.492188 69.808594 147.984375 70.3125 C 147.480469 70.820312 146.929688 71.273438 146.332031 71.671875 C 145.734375 72.070312 145.105469 72.40625 144.445312 72.679688 C 143.78125 72.957031 143.101562 73.164062 142.398438 73.304688 C 141.695312 73.441406 140.984375 73.511719 140.265625 73.511719 C 139.550781 73.511719 138.839844 73.441406 138.136719 73.304688 C 137.433594 73.164062 136.75 72.957031 136.089844 72.679688 C 135.425781 72.40625 134.796875 72.070312 134.203125 71.671875 C 133.605469 71.273438 133.054688 70.820312 132.546875 70.3125 C 132.042969 69.808594 131.589844 69.253906 131.191406 68.660156 C 130.792969 68.0625 130.457031 67.433594 130.183594 66.773438 C 129.90625 66.109375 129.699219 65.425781 129.5625 64.722656 C 129.421875 64.019531 129.351562 63.308594 129.351562 62.59375 C 129.351562 61.875 129.421875 61.167969 129.5625 60.464844 C 129.699219 59.757812 129.90625 59.078125 130.183594 58.414062 C 130.457031 57.753906 130.792969 57.121094 131.191406 56.527344 C 131.589844 55.929688 132.042969 55.378906 132.546875 54.871094 C 133.054688 54.363281 133.605469 53.914062 134.203125 53.515625 C 134.796875 53.117188 135.425781 52.78125 136.089844 52.503906 C 136.75 52.230469 137.433594 52.023438 138.136719 51.882812 C 138.839844 51.742188 139.550781 51.671875 140.265625 51.671875 C 140.984375 51.671875 141.695312 51.742188 142.398438 51.882812 C 143.101562 52.023438 143.78125 52.230469 144.445312 52.503906 C 145.105469 52.78125 145.734375 53.117188 146.332031 53.515625 C 146.929688 53.914062 147.480469 54.363281 147.984375 54.871094 C 148.492188 55.378906 148.945312 55.929688 149.34375 56.527344 C 149.742188 57.121094 150.078125 57.753906 150.351562 58.414062 C 150.625 59.078125 150.832031 59.757812 150.972656 60.464844 C 151.113281 61.167969 151.183594 61.875 151.183594 62.59375 Z M 151.183594 62.59375 " fill-opacity="1" fill-rule="nonzero"/><path fill="#f46275" d="M 183.609375 54.988281 L 321.738281 54.988281 C 322.285156 54.988281 322.824219 55.042969 323.359375 55.148438 C 323.894531 55.253906 324.414062 55.414062 324.921875 55.621094 C 325.425781 55.832031 325.902344 56.085938 326.359375 56.390625 C 326.8125 56.695312 327.234375 57.039062 327.617188 57.425781 C 328.003906 57.8125 328.347656 58.230469 328.652344 58.6875 C 328.957031 59.140625 329.210938 59.621094 329.421875 60.125 C 329.628906 60.628906 329.789062 61.148438 329.894531 61.683594 C 330 62.21875 330.054688 62.761719 330.054688 63.308594 C 330.054688 63.855469 330 64.394531 329.894531 64.933594 C 329.789062 65.46875 329.628906 65.988281 329.421875 66.492188 C 329.210938 66.996094 328.957031 67.476562 328.652344 67.929688 C 328.347656 68.386719 328.003906 68.804688 327.617188 69.191406 C 327.234375 69.578125 326.8125 69.921875 326.359375 70.226562 C 325.902344 70.53125 325.425781 70.785156 324.921875 70.996094 C 324.414062 71.203125 323.894531 71.363281 323.359375 71.46875 C 322.824219 71.574219 322.285156 71.628906 321.738281 71.628906 L 183.609375 71.628906 C 183.066406 71.628906 182.523438 71.574219 181.988281 71.46875 C 181.453125 71.363281 180.933594 71.203125 180.429688 70.996094 C 179.921875 70.785156 179.445312 70.53125 178.992188 70.226562 C 178.535156 69.921875 178.117188 69.578125 177.730469 69.191406 C 177.34375 68.804688 177 68.386719 176.695312 67.929688 C 176.390625 67.476562 176.136719 66.996094 175.925781 66.492188 C 175.71875 65.988281 175.558594 65.46875 175.453125 64.933594 C 175.347656 64.394531 175.292969 63.855469 175.292969 63.308594 C 175.292969 62.761719 175.347656 62.21875 175.453125 61.683594 C 175.558594 61.148438 175.71875 60.628906 175.925781 60.125 C 176.136719 59.621094 176.390625 59.140625 176.695312 58.6875 C 177 58.230469 177.34375 57.8125 177.730469 57.425781 C 178.117188 57.039062 178.535156 56.695312 178.992188 56.390625 C 179.445312 56.085938 179.921875 55.832031 180.429688 55.621094 C 180.933594 55.414062 181.453125 55.253906 181.988281 55.148438 C 182.523438 55.042969 183.066406 54.988281 183.609375 54.988281 Z M 183.609375 54.988281 " fill-opacity="1" fill-rule="nonzero"/><path fill="#63bce7" d="M 157.308594 178.226562 C 160.476562 180.753906 163.191406 183.695312 165.457031 187.050781 C 165.960938 187.824219 166.351562 188.648438 166.628906 189.527344 C 166.910156 190.40625 167.066406 191.308594 167.101562 192.230469 C 167.140625 193.148438 167.050781 194.058594 166.839844 194.957031 C 166.632812 195.855469 166.304688 196.710938 165.863281 197.519531 C 165.421875 198.328125 164.882812 199.066406 164.242188 199.726562 C 163.601562 200.390625 162.882812 200.957031 162.089844 201.425781 C 161.296875 201.894531 160.453125 202.25 159.566406 202.492188 C 158.675781 202.734375 157.769531 202.851562 156.847656 202.847656 L 154.507812 202.847656 C 153.714844 202.84375 152.929688 202.742188 152.160156 202.546875 C 151.390625 202.351562 150.65625 202.0625 149.957031 201.6875 C 149.257812 201.3125 148.613281 200.855469 148.023438 200.324219 C 147.4375 199.789062 146.921875 199.191406 146.480469 198.53125 C 144.976562 196.320312 143.113281 194.464844 140.894531 192.972656 C 139.019531 191.75 137.003906 190.828125 134.851562 190.21875 C 132.699219 189.605469 130.5 189.328125 128.261719 189.386719 C 126.785156 189.339844 125.324219 189.460938 123.875 189.75 C 122.425781 190.039062 121.027344 190.488281 119.683594 191.101562 C 118.339844 191.710938 117.082031 192.46875 115.910156 193.371094 C 114.738281 194.269531 113.6875 195.292969 112.75 196.4375 C 108.820312 201.140625 106.851562 207.425781 106.851562 215.289062 C 106.851562 223.152344 108.820312 229.414062 112.75 234.074219 C 113.691406 235.210938 114.746094 236.226562 115.917969 237.121094 C 117.09375 238.015625 118.351562 238.765625 119.695312 239.371094 C 121.039062 239.976562 122.433594 240.421875 123.882812 240.710938 C 125.328125 240.996094 126.789062 241.113281 128.261719 241.0625 C 130.5 241.121094 132.699219 240.84375 134.851562 240.234375 C 137.007812 239.621094 139.019531 238.703125 140.894531 237.476562 C 143.113281 235.988281 144.980469 234.144531 146.496094 231.945312 C 146.964844 231.285156 147.5 230.691406 148.113281 230.164062 C 148.722656 229.636719 149.386719 229.1875 150.105469 228.820312 C 150.824219 228.457031 151.574219 228.179688 152.359375 227.996094 C 153.144531 227.8125 153.941406 227.722656 154.75 227.730469 L 156.789062 227.730469 C 157.710938 227.726562 158.617188 227.84375 159.507812 228.085938 C 160.398438 228.328125 161.238281 228.683594 162.035156 229.152344 C 162.828125 229.621094 163.546875 230.1875 164.1875 230.851562 C 164.828125 231.515625 165.367188 232.253906 165.808594 233.0625 C 166.25 233.871094 166.574219 234.726562 166.785156 235.625 C 166.996094 236.523438 167.082031 237.433594 167.046875 238.355469 C 167.007812 239.277344 166.851562 240.179688 166.570312 241.058594 C 166.289062 241.9375 165.894531 242.761719 165.390625 243.535156 C 163.132812 246.855469 160.433594 249.773438 157.304688 252.289062 C 149.742188 258.402344 140.191406 261.457031 128.652344 261.457031 C 124.59375 261.546875 120.59375 261.09375 116.65625 260.105469 C 112.71875 259.113281 108.984375 257.621094 105.449219 255.621094 C 102.136719 253.703125 99.167969 251.351562 96.539062 248.570312 C 93.910156 245.785156 91.730469 242.6875 90 239.273438 C 89.105469 237.40625 88.320312 235.5 87.636719 233.546875 C 86.957031 231.589844 86.390625 229.605469 85.929688 227.589844 C 85.472656 225.570312 85.128906 223.535156 84.898438 221.480469 C 84.667969 219.425781 84.550781 217.363281 84.550781 215.292969 C 84.550781 213.222656 84.667969 211.164062 84.898438 209.105469 C 85.128906 207.050781 85.472656 205.015625 85.929688 202.996094 C 86.390625 200.980469 86.957031 198.996094 87.636719 197.039062 C 88.320312 195.085938 89.105469 193.179688 90 191.3125 C 91.730469 187.898438 93.910156 184.800781 96.539062 182.019531 C 99.167969 179.234375 102.136719 176.882812 105.449219 174.964844 C 108.984375 172.964844 112.71875 171.472656 116.65625 170.480469 C 120.59375 169.492188 124.59375 169.039062 128.652344 169.128906 C 140.195312 169.125 149.746094 172.15625 157.308594 178.226562 Z M 157.308594 178.226562 " fill-opacity="1" fill-rule="nonzero"/><path fill="#63bce7" d="M 221.902344 196.796875 L 221.902344 198.253906 C 221.902344 198.925781 221.835938 199.589844 221.707031 200.25 C 221.574219 200.910156 221.382812 201.550781 221.125 202.171875 C 220.867188 202.792969 220.550781 203.382812 220.179688 203.941406 C 219.804688 204.5 219.382812 205.015625 218.90625 205.492188 C 218.429688 205.964844 217.914062 206.390625 217.355469 206.765625 C 216.796875 207.136719 216.207031 207.453125 215.585938 207.710938 C 214.964844 207.964844 214.328125 208.160156 213.667969 208.292969 C 213.007812 208.421875 212.34375 208.488281 211.671875 208.488281 L 209.316406 208.488281 C 208.644531 208.488281 207.980469 208.421875 207.320312 208.292969 C 206.660156 208.160156 206.023438 207.964844 205.402344 207.710938 C 204.78125 207.453125 204.191406 207.136719 203.632812 206.765625 C 203.074219 206.390625 202.558594 205.964844 202.082031 205.492188 C 201.605469 205.015625 201.183594 204.5 200.808594 203.941406 C 200.4375 203.382812 200.121094 202.792969 199.863281 202.171875 C 199.605469 201.550781 199.414062 200.910156 199.28125 200.25 C 199.152344 199.589844 199.085938 198.925781 199.085938 198.253906 L 199.085938 196.796875 C 199.085938 196.125 199.152344 195.460938 199.28125 194.800781 C 199.414062 194.140625 199.605469 193.5 199.863281 192.878906 C 200.121094 192.257812 200.4375 191.667969 200.808594 191.109375 C 201.183594 190.550781 201.605469 190.035156 202.082031 189.558594 C 202.558594 189.085938 203.074219 188.660156 203.632812 188.289062 C 204.191406 187.914062 204.78125 187.597656 205.402344 187.339844 C 206.023438 187.085938 206.660156 186.890625 207.320312 186.757812 C 207.980469 186.628906 208.644531 186.5625 209.316406 186.5625 L 211.671875 186.5625 C 212.34375 186.5625 213.007812 186.628906 213.667969 186.757812 C 214.328125 186.890625 214.964844 187.085938 215.585938 187.339844 C 216.207031 187.597656 216.796875 187.914062 217.355469 188.289062 C 217.914062 188.660156 218.429688 189.085938 218.90625 189.558594 C 219.382812 190.035156 219.804688 190.550781 220.179688 191.109375 C 220.550781 191.667969 220.867188 192.257812 221.125 192.878906 C 221.382812 193.5 221.574219 194.140625 221.707031 194.800781 C 221.835938 195.460938 221.902344 196.125 221.902344 196.796875 Z M 221.902344 248.988281 L 221.902344 250.445312 C 221.902344 251.121094 221.835938 251.785156 221.707031 252.445312 C 221.574219 253.101562 221.382812 253.742188 221.125 254.363281 C 220.867188 254.984375 220.550781 255.574219 220.179688 256.132812 C 219.804688 256.691406 219.382812 257.207031 218.90625 257.683594 C 218.429688 258.160156 217.914062 258.582031 217.355469 258.957031 C 216.796875 259.332031 216.207031 259.644531 215.585938 259.902344 C 214.964844 260.160156 214.328125 260.355469 213.667969 260.484375 C 213.007812 260.617188 212.34375 260.683594 211.671875 260.683594 L 209.316406 260.683594 C 208.644531 260.683594 207.980469 260.617188 207.320312 260.484375 C 206.660156 260.355469 206.023438 260.160156 205.402344 259.902344 C 204.78125 259.644531 204.191406 259.332031 203.632812 258.957031 C 203.074219 258.582031 202.558594 258.160156 202.082031 257.683594 C 201.605469 257.207031 201.183594 256.691406 200.808594 256.132812 C 200.4375 255.574219 200.121094 254.984375 199.863281 254.363281 C 199.605469 253.742188 199.414062 253.101562 199.28125 252.445312 C 199.152344 251.785156 199.085938 251.121094 199.085938 250.445312 L 199.085938 248.988281 C 199.085938 248.316406 199.152344 247.652344 199.28125 246.992188 C 199.414062 246.332031 199.605469 245.691406 199.863281 245.070312 C 200.121094 244.453125 200.4375 243.863281 200.808594 243.300781 C 201.183594 242.742188 201.605469 242.226562 202.082031 241.75 C 202.558594 241.277344 203.074219 240.851562 203.632812 240.480469 C 204.191406 240.105469 204.78125 239.789062 205.402344 239.53125 C 206.023438 239.277344 206.660156 239.082031 207.320312 238.949219 C 207.980469 238.820312 208.644531 238.753906 209.316406 238.753906 L 211.671875 238.753906 C 212.34375 238.753906 213.007812 238.820312 213.667969 238.949219 C 214.328125 239.082031 214.964844 239.277344 215.585938 239.53125 C 216.207031 239.789062 216.796875 240.105469 217.355469 240.480469 C 217.914062 240.851562 218.429688 241.277344 218.90625 241.75 C 219.382812 242.226562 219.804688 242.742188 220.179688 243.300781 C 220.550781 243.863281 220.867188 244.453125 221.125 245.070312 C 221.382812 245.691406 221.574219 246.332031 221.707031 246.992188 C 221.835938 247.652344 221.902344 248.316406 221.902344 248.988281 Z M 221.902344 248.988281 " fill-opacity="1" fill-rule="nonzero"/><path fill="#63bce7" d="M 270.554688 276.902344 L 241.019531 151.433594 C 240.929688 151.058594 240.863281 150.683594 240.820312 150.300781 C 240.773438 149.917969 240.75 149.535156 240.746094 149.152344 C 240.746094 148.765625 240.761719 148.382812 240.804688 148 C 240.84375 147.617188 240.90625 147.238281 240.992188 146.863281 C 241.074219 146.488281 241.179688 146.117188 241.304688 145.753906 C 241.429688 145.390625 241.574219 145.035156 241.742188 144.6875 C 241.90625 144.339844 242.089844 144.003906 242.292969 143.675781 C 242.496094 143.351562 242.71875 143.035156 242.957031 142.734375 C 243.195312 142.433594 243.449219 142.148438 243.722656 141.875 C 243.992188 141.601562 244.277344 141.34375 244.578125 141.105469 C 244.878906 140.863281 245.191406 140.640625 245.515625 140.433594 C 245.839844 140.230469 246.175781 140.042969 246.523438 139.875 C 246.867188 139.707031 247.222656 139.558594 247.585938 139.433594 C 247.949219 139.304688 248.316406 139.199219 248.691406 139.113281 C 249.066406 139.027344 249.445312 138.960938 249.828125 138.917969 C 250.210938 138.875 250.59375 138.855469 250.976562 138.855469 C 251.550781 138.855469 252.117188 138.902344 252.683594 138.996094 C 253.246094 139.09375 253.800781 139.234375 254.339844 139.421875 C 254.882812 139.609375 255.402344 139.84375 255.902344 140.117188 C 256.40625 140.394531 256.882812 140.710938 257.328125 141.066406 C 257.777344 141.421875 258.195312 141.8125 258.578125 142.234375 C 258.960938 142.660156 259.304688 143.117188 259.613281 143.597656 C 259.921875 144.082031 260.183594 144.585938 260.40625 145.113281 C 260.628906 145.644531 260.804688 146.183594 260.9375 146.742188 L 290.476562 272.203125 C 290.5625 272.578125 290.628906 272.957031 290.675781 273.339844 C 290.722656 273.722656 290.746094 274.105469 290.746094 274.488281 C 290.75 274.875 290.730469 275.257812 290.691406 275.640625 C 290.648438 276.023438 290.585938 276.402344 290.503906 276.777344 C 290.417969 277.152344 290.316406 277.523438 290.191406 277.886719 C 290.0625 278.25 289.917969 278.605469 289.753906 278.953125 C 289.589844 279.300781 289.402344 279.636719 289.199219 279.960938 C 288.996094 280.289062 288.777344 280.601562 288.539062 280.90625 C 288.296875 281.207031 288.042969 281.492188 287.773438 281.765625 C 287.5 282.039062 287.214844 282.296875 286.914062 282.535156 C 286.617188 282.777344 286.304688 283 285.976562 283.207031 C 285.652344 283.410156 285.316406 283.597656 284.972656 283.765625 C 284.625 283.933594 284.269531 284.078125 283.90625 284.207031 C 283.542969 284.335938 283.175781 284.441406 282.800781 284.527344 C 282.425781 284.613281 282.046875 284.675781 281.664062 284.722656 C 281.28125 284.765625 280.898438 284.785156 280.515625 284.785156 C 279.941406 284.785156 279.375 284.738281 278.8125 284.644531 C 278.246094 284.546875 277.695312 284.40625 277.152344 284.21875 C 276.613281 284.03125 276.09375 283.796875 275.589844 283.523438 C 275.089844 283.246094 274.613281 282.929688 274.164062 282.578125 C 273.714844 282.222656 273.300781 281.832031 272.917969 281.40625 C 272.535156 280.980469 272.1875 280.527344 271.882812 280.042969 C 271.574219 279.5625 271.308594 279.054688 271.085938 278.527344 C 270.863281 278 270.6875 277.457031 270.554688 276.902344 Z M 270.554688 276.902344 " fill-opacity="1" fill-rule="nonzero"/><path fill="#3f3679" d="M 56.175781 49.332031 C 55.304688 49.332031 54.441406 49.417969 53.589844 49.589844 C 52.734375 49.757812 51.90625 50.011719 51.101562 50.34375 C 50.296875 50.675781 49.535156 51.085938 48.8125 51.570312 C 48.085938 52.050781 47.417969 52.601562 46.800781 53.21875 C 46.1875 53.832031 45.636719 54.503906 45.152344 55.226562 C 44.671875 55.949219 44.261719 56.714844 43.929688 57.519531 C 43.59375 58.324219 43.34375 59.152344 43.175781 60.007812 C 43.003906 60.859375 42.917969 61.722656 42.917969 62.59375 C 42.917969 63.464844 43.003906 64.324219 43.175781 65.179688 C 43.34375 66.035156 43.59375 66.863281 43.929688 67.667969 C 44.261719 68.472656 44.671875 69.234375 45.152344 69.960938 C 45.636719 70.683594 46.1875 71.351562 46.800781 71.96875 C 47.417969 72.585938 48.085938 73.132812 48.8125 73.617188 C 49.535156 74.101562 50.296875 74.511719 51.101562 74.84375 C 51.90625 75.175781 52.734375 75.429688 53.589844 75.597656 C 54.441406 75.765625 55.304688 75.851562 56.175781 75.851562 C 57.046875 75.851562 57.90625 75.765625 58.761719 75.597656 C 59.613281 75.429688 60.445312 75.175781 61.246094 74.84375 C 62.050781 74.511719 62.816406 74.101562 63.539062 73.617188 C 64.261719 73.132812 64.933594 72.585938 65.546875 71.96875 C 66.164062 71.351562 66.714844 70.683594 67.195312 69.960938 C 67.679688 69.234375 68.089844 68.472656 68.421875 67.667969 C 68.753906 66.863281 69.007812 66.035156 69.175781 65.179688 C 69.34375 64.324219 69.429688 63.464844 69.429688 62.59375 C 69.429688 61.722656 69.34375 60.859375 69.171875 60.007812 C 69.003906 59.152344 68.75 58.324219 68.417969 57.523438 C 68.082031 56.71875 67.675781 55.953125 67.191406 55.230469 C 66.707031 54.507812 66.160156 53.835938 65.542969 53.222656 C 64.929688 52.605469 64.257812 52.058594 63.535156 51.574219 C 62.8125 51.089844 62.050781 50.679688 61.246094 50.347656 C 60.441406 50.015625 59.613281 49.761719 58.761719 49.589844 C 57.90625 49.421875 57.046875 49.335938 56.175781 49.332031 Z M 56.175781 71.171875 C 55.613281 71.171875 55.054688 71.117188 54.5 71.007812 C 53.949219 70.898438 53.414062 70.734375 52.894531 70.519531 C 52.371094 70.304688 51.878906 70.039062 51.410156 69.726562 C 50.941406 69.414062 50.507812 69.058594 50.109375 68.660156 C 49.710938 68.261719 49.355469 67.828125 49.042969 67.359375 C 48.730469 66.890625 48.464844 66.398438 48.25 65.875 C 48.035156 65.355469 47.871094 64.820312 47.761719 64.265625 C 47.652344 63.714844 47.597656 63.15625 47.597656 62.59375 C 47.597656 62.03125 47.652344 61.472656 47.761719 60.917969 C 47.871094 60.367188 48.035156 59.832031 48.25 59.308594 C 48.464844 58.789062 48.730469 58.296875 49.042969 57.828125 C 49.355469 57.359375 49.710938 56.925781 50.109375 56.527344 C 50.507812 56.128906 50.941406 55.773438 51.410156 55.460938 C 51.878906 55.148438 52.371094 54.882812 52.894531 54.667969 C 53.414062 54.453125 53.949219 54.289062 54.5 54.179688 C 55.054688 54.070312 55.613281 54.015625 56.175781 54.015625 C 56.738281 54.015625 57.296875 54.070312 57.847656 54.179688 C 58.402344 54.289062 58.9375 54.453125 59.457031 54.667969 C 59.976562 54.882812 60.472656 55.148438 60.941406 55.460938 C 61.410156 55.773438 61.839844 56.128906 62.238281 56.527344 C 62.636719 56.925781 62.992188 57.359375 63.308594 57.828125 C 63.621094 58.296875 63.882812 58.789062 64.097656 59.308594 C 64.316406 59.832031 64.476562 60.367188 64.585938 60.917969 C 64.695312 61.472656 64.753906 62.03125 64.753906 62.59375 C 64.75 63.15625 64.695312 63.714844 64.585938 64.265625 C 64.476562 64.820312 64.3125 65.355469 64.097656 65.875 C 63.882812 66.394531 63.617188 66.890625 63.304688 67.359375 C 62.992188 67.824219 62.636719 68.257812 62.238281 68.65625 C 61.839844 69.054688 61.40625 69.410156 60.9375 69.722656 C 60.46875 70.035156 59.976562 70.300781 59.457031 70.515625 C 58.9375 70.734375 58.398438 70.894531 57.847656 71.007812 C 57.296875 71.117188 56.738281 71.171875 56.175781 71.171875 Z M 56.175781 71.171875 " fill-opacity="1" fill-rule="nonzero"/><path fill="#3f3679" d="M 98.222656 49.332031 C 97.351562 49.332031 96.488281 49.417969 95.636719 49.589844 C 94.78125 49.757812 93.953125 50.011719 93.148438 50.34375 C 92.34375 50.675781 91.582031 51.085938 90.855469 51.570312 C 90.132812 52.050781 89.464844 52.601562 88.847656 53.21875 C 88.234375 53.832031 87.683594 54.503906 87.199219 55.226562 C 86.714844 55.949219 86.308594 56.714844 85.976562 57.519531 C 85.640625 58.324219 85.390625 59.152344 85.21875 60.007812 C 85.050781 60.859375 84.964844 61.722656 84.964844 62.59375 C 84.964844 63.464844 85.050781 64.324219 85.21875 65.179688 C 85.390625 66.035156 85.640625 66.863281 85.976562 67.667969 C 86.308594 68.472656 86.714844 69.234375 87.199219 69.960938 C 87.683594 70.683594 88.234375 71.351562 88.847656 71.96875 C 89.464844 72.585938 90.132812 73.132812 90.855469 73.617188 C 91.582031 74.101562 92.34375 74.511719 93.148438 74.84375 C 93.953125 75.175781 94.78125 75.429688 95.636719 75.597656 C 96.488281 75.765625 97.351562 75.851562 98.222656 75.851562 C 99.089844 75.851562 99.953125 75.765625 100.808594 75.597656 C 101.660156 75.429688 102.488281 75.175781 103.292969 74.84375 C 104.097656 74.511719 104.863281 74.101562 105.585938 73.617188 C 106.308594 73.132812 106.980469 72.585938 107.59375 71.96875 C 108.210938 71.351562 108.757812 70.683594 109.242188 69.960938 C 109.726562 69.234375 110.132812 68.472656 110.46875 67.667969 C 110.800781 66.863281 111.050781 66.035156 111.222656 65.179688 C 111.390625 64.324219 111.476562 63.464844 111.476562 62.59375 C 111.476562 61.722656 111.390625 60.859375 111.21875 60.007812 C 111.046875 59.152344 110.796875 58.324219 110.464844 57.523438 C 110.128906 56.71875 109.722656 55.953125 109.238281 55.230469 C 108.753906 54.507812 108.203125 53.835938 107.589844 53.222656 C 106.972656 52.605469 106.304688 52.058594 105.582031 51.574219 C 104.859375 51.089844 104.09375 50.679688 103.292969 50.347656 C 102.488281 50.015625 101.660156 49.761719 100.804688 49.589844 C 99.953125 49.421875 99.089844 49.335938 98.222656 49.332031 Z M 98.222656 71.171875 C 97.65625 71.171875 97.101562 71.117188 96.546875 71.007812 C 95.996094 70.898438 95.460938 70.734375 94.9375 70.519531 C 94.417969 70.304688 93.925781 70.039062 93.457031 69.726562 C 92.988281 69.414062 92.554688 69.058594 92.15625 68.660156 C 91.757812 68.261719 91.402344 67.828125 91.089844 67.359375 C 90.777344 66.890625 90.511719 66.398438 90.296875 65.875 C 90.082031 65.355469 89.917969 64.820312 89.808594 64.265625 C 89.699219 63.714844 89.644531 63.15625 89.644531 62.59375 C 89.644531 62.03125 89.699219 61.472656 89.808594 60.917969 C 89.917969 60.367188 90.082031 59.832031 90.296875 59.308594 C 90.511719 58.789062 90.777344 58.296875 91.089844 57.828125 C 91.402344 57.359375 91.757812 56.925781 92.15625 56.527344 C 92.554688 56.128906 92.988281 55.773438 93.457031 55.460938 C 93.925781 55.148438 94.417969 54.882812 94.9375 54.667969 C 95.460938 54.453125 95.996094 54.289062 96.546875 54.179688 C 97.101562 54.070312 97.65625 54.015625 98.222656 54.015625 C 98.785156 54.015625 99.34375 54.070312 99.894531 54.179688 C 100.445312 54.289062 100.984375 54.453125 101.503906 54.667969 C 102.023438 54.882812 102.519531 55.148438 102.984375 55.460938 C 103.453125 55.773438 103.886719 56.128906 104.285156 56.527344 C 104.683594 56.925781 105.039062 57.359375 105.351562 57.828125 C 105.664062 58.296875 105.929688 58.789062 106.144531 59.308594 C 106.359375 59.832031 106.523438 60.367188 106.632812 60.917969 C 106.742188 61.472656 106.796875 62.03125 106.796875 62.59375 C 106.796875 63.15625 106.742188 63.714844 106.632812 64.265625 C 106.523438 64.820312 106.359375 65.355469 106.144531 65.875 C 105.925781 66.394531 105.664062 66.890625 105.351562 67.359375 C 105.035156 67.824219 104.679688 68.257812 104.285156 68.65625 C 103.886719 69.054688 103.453125 69.410156 102.984375 69.722656 C 102.515625 70.035156 102.023438 70.300781 101.503906 70.515625 C 100.980469 70.734375 100.445312 70.894531 99.894531 71.007812 C 99.339844 71.117188 98.785156 71.171875 98.222656 71.171875 Z M 98.222656 71.171875 " fill-opacity="1" fill-rule="nonzero"/><path fill="#3f3679" d="M 140.265625 49.332031 C 139.398438 49.332031 138.535156 49.417969 137.679688 49.589844 C 136.828125 49.757812 136 50.011719 135.195312 50.34375 C 134.390625 50.675781 133.625 51.085938 132.902344 51.570312 C 132.179688 52.050781 131.507812 52.601562 130.894531 53.21875 C 130.277344 53.832031 129.730469 54.503906 129.246094 55.226562 C 128.761719 55.949219 128.355469 56.714844 128.019531 57.519531 C 127.6875 58.324219 127.4375 59.152344 127.265625 60.007812 C 127.097656 60.859375 127.011719 61.722656 127.011719 62.59375 C 127.011719 63.464844 127.097656 64.324219 127.265625 65.179688 C 127.4375 66.035156 127.6875 66.863281 128.019531 67.667969 C 128.355469 68.472656 128.761719 69.234375 129.246094 69.960938 C 129.730469 70.683594 130.277344 71.351562 130.894531 71.96875 C 131.507812 72.585938 132.179688 73.132812 132.902344 73.617188 C 133.625 74.101562 134.390625 74.511719 135.195312 74.84375 C 136 75.175781 136.828125 75.429688 137.679688 75.597656 C 138.535156 75.765625 139.398438 75.851562 140.265625 75.851562 C 141.136719 75.851562 142 75.765625 142.851562 75.597656 C 143.707031 75.429688 144.535156 75.175781 145.339844 74.84375 C 146.144531 74.511719 146.90625 74.101562 147.632812 73.617188 C 148.355469 73.132812 149.023438 72.585938 149.640625 71.96875 C 150.253906 71.351562 150.804688 70.683594 151.289062 69.960938 C 151.773438 69.234375 152.179688 68.472656 152.511719 67.667969 C 152.847656 66.863281 153.097656 66.035156 153.269531 65.179688 C 153.4375 64.324219 153.523438 63.464844 153.523438 62.59375 C 153.523438 61.722656 153.4375 60.859375 153.265625 60.007812 C 153.09375 59.152344 152.84375 58.324219 152.507812 57.523438 C 152.175781 56.71875 151.765625 55.953125 151.285156 55.230469 C 150.800781 54.507812 150.25 53.835938 149.636719 53.222656 C 149.019531 52.605469 148.351562 52.058594 147.628906 51.574219 C 146.90625 51.089844 146.140625 50.679688 145.335938 50.347656 C 144.535156 50.015625 143.707031 49.761719 142.851562 49.589844 C 142 49.421875 141.136719 49.335938 140.265625 49.332031 Z M 140.265625 71.171875 C 139.703125 71.171875 139.144531 71.117188 138.59375 71.007812 C 138.042969 70.898438 137.503906 70.734375 136.984375 70.519531 C 136.464844 70.304688 135.96875 70.039062 135.503906 69.726562 C 135.035156 69.414062 134.601562 69.058594 134.203125 68.660156 C 133.804688 68.261719 133.449219 67.828125 133.136719 67.359375 C 132.824219 66.890625 132.558594 66.398438 132.34375 65.875 C 132.128906 65.355469 131.964844 64.820312 131.855469 64.265625 C 131.746094 63.714844 131.691406 63.15625 131.691406 62.59375 C 131.691406 62.03125 131.746094 61.472656 131.855469 60.917969 C 131.964844 60.367188 132.128906 59.832031 132.34375 59.308594 C 132.558594 58.789062 132.824219 58.296875 133.136719 57.828125 C 133.449219 57.359375 133.804688 56.925781 134.203125 56.527344 C 134.601562 56.128906 135.035156 55.773438 135.503906 55.460938 C 135.96875 55.148438 136.464844 54.882812 136.984375 54.667969 C 137.503906 54.453125 138.042969 54.289062 138.59375 54.179688 C 139.144531 54.070312 139.703125 54.015625 140.265625 54.015625 C 140.832031 54.015625 141.386719 54.070312 141.941406 54.179688 C 142.492188 54.289062 143.027344 54.453125 143.550781 54.667969 C 144.070312 54.882812 144.5625 55.148438 145.03125 55.460938 C 145.5 55.773438 145.933594 56.128906 146.332031 56.527344 C 146.730469 56.925781 147.085938 57.359375 147.398438 57.828125 C 147.710938 58.296875 147.976562 58.789062 148.191406 59.308594 C 148.40625 59.832031 148.570312 60.367188 148.679688 60.917969 C 148.789062 61.472656 148.84375 62.03125 148.84375 62.59375 C 148.84375 63.15625 148.789062 63.714844 148.679688 64.265625 C 148.566406 64.820312 148.40625 65.355469 148.1875 65.875 C 147.972656 66.394531 147.707031 66.890625 147.394531 67.359375 C 147.082031 67.824219 146.726562 68.257812 146.328125 68.65625 C 145.929688 69.054688 145.5 69.410156 145.03125 69.722656 C 144.5625 70.035156 144.066406 70.300781 143.546875 70.515625 C 143.027344 70.734375 142.492188 70.894531 141.941406 71.007812 C 141.386719 71.117188 140.832031 71.171875 140.265625 71.171875 Z M 140.265625 71.171875 " fill-opacity="1" fill-rule="nonzero"/><path fill="#3f3679" d="M 321.738281 52.648438 L 183.609375 52.648438 C 182.910156 52.648438 182.21875 52.71875 181.53125 52.855469 C 180.84375 52.988281 180.179688 53.191406 179.53125 53.460938 C 178.886719 53.726562 178.273438 54.054688 177.691406 54.445312 C 177.109375 54.835938 176.570312 55.277344 176.074219 55.769531 C 175.582031 56.265625 175.140625 56.804688 174.75 57.386719 C 174.363281 57.96875 174.03125 58.582031 173.765625 59.230469 C 173.496094 59.875 173.296875 60.542969 173.160156 61.230469 C 173.023438 61.914062 172.953125 62.609375 172.953125 63.308594 C 172.953125 64.007812 173.023438 64.703125 173.160156 65.386719 C 173.296875 66.074219 173.496094 66.742188 173.765625 67.386719 C 174.03125 68.035156 174.363281 68.648438 174.75 69.230469 C 175.140625 69.8125 175.582031 70.351562 176.074219 70.847656 C 176.570312 71.339844 177.109375 71.78125 177.691406 72.171875 C 178.273438 72.558594 178.886719 72.890625 179.53125 73.15625 C 180.179688 73.425781 180.84375 73.625 181.53125 73.761719 C 182.21875 73.898438 182.910156 73.96875 183.609375 73.96875 L 321.738281 73.96875 C 322.4375 73.96875 323.128906 73.898438 323.816406 73.761719 C 324.5 73.625 325.167969 73.425781 325.8125 73.15625 C 326.460938 72.890625 327.074219 72.558594 327.65625 72.171875 C 328.238281 71.78125 328.777344 71.339844 329.273438 70.847656 C 329.765625 70.351562 330.207031 69.8125 330.597656 69.230469 C 330.984375 68.648438 331.3125 68.035156 331.582031 67.386719 C 331.847656 66.742188 332.050781 66.074219 332.1875 65.386719 C 332.324219 64.703125 332.394531 64.007812 332.394531 63.308594 C 332.394531 62.609375 332.324219 61.914062 332.1875 61.230469 C 332.050781 60.542969 331.847656 59.875 331.582031 59.230469 C 331.3125 58.582031 330.984375 57.96875 330.597656 57.386719 C 330.207031 56.804688 329.765625 56.265625 329.273438 55.769531 C 328.777344 55.277344 328.238281 54.835938 327.65625 54.445312 C 327.074219 54.054688 326.460938 53.726562 325.8125 53.460938 C 325.167969 53.191406 324.5 52.988281 323.816406 52.855469 C 323.128906 52.71875 322.4375 52.648438 321.738281 52.648438 Z M 321.738281 69.289062 L 183.609375 69.289062 C 183.21875 69.289062 182.828125 69.25 182.445312 69.171875 C 182.058594 69.097656 181.6875 68.984375 181.324219 68.832031 C 180.960938 68.683594 180.617188 68.5 180.289062 68.28125 C 179.964844 68.0625 179.660156 67.816406 179.382812 67.535156 C 179.105469 67.257812 178.859375 66.957031 178.640625 66.628906 C 178.421875 66.304688 178.238281 65.960938 178.085938 65.597656 C 177.9375 65.234375 177.824219 64.859375 177.746094 64.476562 C 177.671875 64.089844 177.632812 63.699219 177.632812 63.308594 C 177.632812 62.914062 177.671875 62.527344 177.746094 62.140625 C 177.824219 61.757812 177.9375 61.382812 178.085938 61.019531 C 178.238281 60.65625 178.421875 60.3125 178.640625 59.984375 C 178.859375 59.660156 179.105469 59.359375 179.382812 59.078125 C 179.660156 58.800781 179.964844 58.554688 180.289062 58.335938 C 180.617188 58.117188 180.960938 57.933594 181.324219 57.785156 C 181.6875 57.632812 182.058594 57.519531 182.445312 57.445312 C 182.828125 57.367188 183.21875 57.328125 183.609375 57.328125 L 321.738281 57.328125 C 322.128906 57.328125 322.519531 57.367188 322.902344 57.445312 C 323.289062 57.519531 323.660156 57.632812 324.023438 57.785156 C 324.386719 57.933594 324.730469 58.117188 325.058594 58.335938 C 325.382812 58.554688 325.6875 58.800781 325.964844 59.078125 C 326.242188 59.359375 326.488281 59.660156 326.707031 59.984375 C 326.925781 60.3125 327.109375 60.65625 327.257812 61.019531 C 327.410156 61.382812 327.523438 61.757812 327.601562 62.140625 C 327.675781 62.527344 327.714844 62.914062 327.714844 63.308594 C 327.714844 63.699219 327.675781 64.089844 327.597656 64.476562 C 327.523438 64.859375 327.410156 65.234375 327.257812 65.597656 C 327.109375 65.960938 326.925781 66.304688 326.707031 66.628906 C 326.488281 66.957031 326.242188 67.257812 325.964844 67.535156 C 325.6875 67.816406 325.382812 68.0625 325.058594 68.28125 C 324.730469 68.5 324.386719 68.683594 324.023438 68.832031 C 323.660156 68.984375 323.289062 69.097656 322.902344 69.171875 C 322.519531 69.25 322.128906 69.289062 321.738281 69.289062 Z M 321.738281 69.289062 " fill-opacity="1" fill-rule="nonzero"/><g clip-path="url(#1dc72c4981)"><path fill="#3f3679" d="M 30.65625 343.074219 L 2.585938 343.074219 C 2.273438 343.074219 1.976562 343.132812 1.6875 343.253906 C 1.402344 343.371094 1.148438 343.539062 0.929688 343.761719 C 0.710938 343.980469 0.542969 344.234375 0.421875 344.519531 C 0.304688 344.804688 0.246094 345.105469 0.246094 345.414062 C 0.246094 345.726562 0.304688 346.023438 0.421875 346.308594 C 0.542969 346.597656 0.710938 346.851562 0.929688 347.070312 C 1.148438 347.289062 1.402344 347.457031 1.6875 347.578125 C 1.976562 347.695312 2.273438 347.753906 2.585938 347.753906 L 30.65625 347.753906 C 30.964844 347.753906 31.261719 347.695312 31.550781 347.578125 C 31.835938 347.457031 32.089844 347.289062 32.308594 347.070312 C 32.527344 346.851562 32.695312 346.597656 32.816406 346.308594 C 32.933594 346.023438 32.992188 345.726562 32.992188 345.414062 C 32.992188 345.105469 32.933594 344.804688 32.816406 344.519531 C 32.695312 344.234375 32.527344 343.980469 32.308594 343.761719 C 32.089844 343.539062 31.835938 343.371094 31.550781 343.253906 C 31.261719 343.132812 30.964844 343.074219 30.65625 343.074219 Z M 30.65625 343.074219 " fill-opacity="1" fill-rule="nonzero"/></g><g clip-path="url(#d3fe98c949)"><path fill="#3f3679" d="M 372.730469 343.074219 L 344.660156 343.074219 C 344.351562 343.074219 344.054688 343.132812 343.765625 343.253906 C 343.480469 343.371094 343.226562 343.539062 343.007812 343.761719 C 342.789062 343.980469 342.621094 344.234375 342.5 344.519531 C 342.382812 344.804688 342.324219 345.105469 342.324219 345.414062 C 342.324219 345.726562 342.382812 346.023438 342.5 346.308594 C 342.621094 346.597656 342.789062 346.851562 343.007812 347.070312 C 343.226562 347.289062 343.480469 347.457031 343.765625 347.578125 C 344.054688 347.695312 344.351562 347.753906 344.660156 347.753906 L 372.730469 347.753906 C 373.042969 347.753906 373.339844 347.695312 373.628906 347.578125 C 373.914062 347.457031 374.167969 347.289062 374.386719 347.070312 C 374.605469 346.851562 374.773438 346.597656 374.894531 346.308594 C 375.011719 346.023438 375.070312 345.726562 375.070312 345.414062 C 375.070312 345.105469 375.011719 344.804688 374.894531 344.519531 C 374.773438 344.234375 374.605469 343.980469 374.386719 343.761719 C 374.167969 343.539062 373.914062 343.371094 373.628906 343.253906 C 373.339844 343.132812 373.042969 343.074219 372.730469 343.074219 Z M 372.730469 343.074219 " fill-opacity="1" fill-rule="nonzero"/></g><g clip-path="url(#25539d1a4c)"><path fill="#3f3679" d="M 328.753906 343.074219 L 46.558594 343.074219 C 46.246094 343.074219 45.949219 343.132812 45.664062 343.253906 C 45.375 343.371094 45.125 343.539062 44.902344 343.761719 C 44.683594 343.980469 44.515625 344.234375 44.398438 344.519531 C 44.277344 344.804688 44.21875 345.105469 44.21875 345.414062 C 44.21875 345.726562 44.277344 346.023438 44.398438 346.308594 C 44.515625 346.597656 44.683594 346.851562 44.902344 347.070312 C 45.125 347.289062 45.375 347.457031 45.664062 347.578125 C 45.949219 347.695312 46.246094 347.753906 46.558594 347.753906 L 328.753906 347.753906 C 329.0625 347.753906 329.363281 347.695312 329.648438 347.578125 C 329.9375 347.457031 330.1875 347.289062 330.40625 347.070312 C 330.628906 346.851562 330.796875 346.597656 330.914062 346.308594 C 331.035156 346.023438 331.09375 345.726562 331.09375 345.414062 C 331.09375 345.105469 331.035156 344.804688 330.914062 344.519531 C 330.796875 344.234375 330.628906 343.980469 330.40625 343.761719 C 330.1875 343.539062 329.9375 343.371094 329.648438 343.253906 C 329.363281 343.132812 329.0625 343.074219 328.753906 343.074219 Z M 328.753906 343.074219 " fill-opacity="1" fill-rule="nonzero"/></g><g clip-path="url(#2e283f017e)"><path fill="#3f3679" d="M 375.070312 328.296875 C 375.070312 327.988281 375.011719 327.6875 374.894531 327.402344 C 374.773438 327.117188 374.605469 326.863281 374.386719 326.644531 C 374.167969 326.421875 373.914062 326.253906 373.628906 326.136719 C 373.339844 326.015625 373.042969 325.957031 372.730469 325.957031 L 352.816406 325.957031 C 354.5625 324.753906 356.140625 323.355469 357.546875 321.769531 C 358.953125 320.179688 360.148438 318.445312 361.136719 316.570312 C 362.121094 314.691406 362.871094 312.722656 363.378906 310.660156 C 363.886719 308.601562 364.140625 306.511719 364.144531 304.390625 L 364.144531 53.742188 C 364.140625 52.882812 364.097656 52.027344 364.011719 51.171875 C 363.929688 50.316406 363.800781 49.46875 363.632812 48.625 C 363.464844 47.78125 363.257812 46.949219 363.007812 46.128906 C 362.757812 45.304688 362.464844 44.496094 362.136719 43.703125 C 361.808594 42.910156 361.441406 42.132812 361.035156 41.375 C 360.628906 40.617188 360.1875 39.882812 359.710938 39.167969 C 359.234375 38.453125 358.722656 37.765625 358.175781 37.101562 C 357.632812 36.4375 357.054688 35.800781 356.449219 35.191406 C 355.839844 34.585938 355.203125 34.007812 354.539062 33.460938 C 353.875 32.917969 353.1875 32.40625 352.472656 31.929688 C 351.757812 31.449219 351.023438 31.007812 350.265625 30.601562 C 349.507812 30.199219 348.734375 29.832031 347.9375 29.5 C 347.144531 29.171875 346.335938 28.882812 345.515625 28.632812 C 344.695312 28.382812 343.863281 28.171875 343.019531 28.003906 C 342.175781 27.835938 341.328125 27.710938 340.472656 27.625 C 339.617188 27.539062 338.761719 27.496094 337.902344 27.496094 L 37.410156 27.496094 C 36.550781 27.496094 35.695312 27.539062 34.839844 27.625 C 33.984375 27.710938 33.136719 27.835938 32.292969 28.003906 C 31.449219 28.171875 30.617188 28.382812 29.796875 28.632812 C 28.972656 28.882812 28.167969 29.171875 27.371094 29.5 C 26.578125 29.832031 25.804688 30.199219 25.046875 30.601562 C 24.289062 31.007812 23.550781 31.449219 22.839844 31.929688 C 22.125 32.40625 21.433594 32.917969 20.769531 33.460938 C 20.105469 34.007812 19.472656 34.585938 18.863281 35.191406 C 18.257812 35.800781 17.679688 36.4375 17.132812 37.101562 C 16.589844 37.765625 16.078125 38.453125 15.601562 39.167969 C 15.125 39.882812 14.683594 40.617188 14.277344 41.375 C 13.871094 42.132812 13.503906 42.910156 13.175781 43.703125 C 12.84375 44.496094 12.554688 45.304688 12.304688 46.128906 C 12.054688 46.949219 11.847656 47.78125 11.679688 48.625 C 11.511719 49.46875 11.382812 50.316406 11.296875 51.171875 C 11.214844 52.027344 11.171875 52.882812 11.167969 53.742188 L 11.167969 304.390625 C 11.171875 306.511719 11.425781 308.601562 11.933594 310.660156 C 12.441406 312.722656 13.191406 314.691406 14.175781 316.570312 C 15.164062 318.445312 16.359375 320.179688 17.765625 321.769531 C 19.171875 323.355469 20.75 324.753906 22.492188 325.957031 L 2.578125 325.957031 C 2.269531 325.957031 1.972656 326.015625 1.683594 326.136719 C 1.398438 326.253906 1.144531 326.421875 0.925781 326.644531 C 0.707031 326.863281 0.539062 327.117188 0.417969 327.402344 C 0.300781 327.6875 0.242188 327.988281 0.242188 328.296875 C 0.242188 328.609375 0.300781 328.90625 0.417969 329.191406 C 0.539062 329.480469 0.707031 329.734375 0.925781 329.953125 C 1.144531 330.171875 1.398438 330.339844 1.683594 330.460938 C 1.972656 330.578125 2.269531 330.636719 2.578125 330.636719 L 372.730469 330.636719 C 373.042969 330.636719 373.339844 330.578125 373.628906 330.460938 C 373.914062 330.339844 374.167969 330.171875 374.386719 329.953125 C 374.605469 329.734375 374.773438 329.480469 374.894531 329.191406 C 375.011719 328.90625 375.070312 328.609375 375.070312 328.296875 Z M 15.847656 53.742188 C 15.847656 53.039062 15.882812 52.332031 15.953125 51.628906 C 16.023438 50.929688 16.128906 50.230469 16.265625 49.539062 C 16.40625 48.84375 16.578125 48.160156 16.78125 47.484375 C 16.988281 46.808594 17.226562 46.144531 17.496094 45.492188 C 17.765625 44.839844 18.066406 44.203125 18.402344 43.582031 C 18.734375 42.957031 19.097656 42.355469 19.488281 41.765625 C 19.882812 41.179688 20.300781 40.613281 20.75 40.066406 C 21.199219 39.523438 21.671875 39 22.171875 38.5 C 22.667969 38 23.191406 37.527344 23.738281 37.078125 C 24.285156 36.628906 24.851562 36.210938 25.4375 35.816406 C 26.023438 35.425781 26.628906 35.0625 27.25 34.730469 C 27.875 34.394531 28.511719 34.09375 29.164062 33.824219 C 29.816406 33.554688 30.476562 33.316406 31.152344 33.109375 C 31.828125 32.902344 32.511719 32.730469 33.207031 32.59375 C 33.898438 32.457031 34.59375 32.351562 35.296875 32.28125 C 36 32.210938 36.703125 32.175781 37.410156 32.175781 L 337.902344 32.175781 C 338.609375 32.175781 339.3125 32.210938 340.015625 32.28125 C 340.71875 32.351562 341.414062 32.457031 342.105469 32.59375 C 342.800781 32.730469 343.484375 32.902344 344.15625 33.109375 C 344.832031 33.316406 345.496094 33.554688 346.148438 33.824219 C 346.800781 34.09375 347.4375 34.394531 348.0625 34.730469 C 348.683594 35.0625 349.289062 35.425781 349.875 35.816406 C 350.460938 36.210938 351.027344 36.628906 351.574219 37.078125 C 352.121094 37.527344 352.640625 38 353.140625 38.5 C 353.640625 39 354.113281 39.523438 354.5625 40.066406 C 355.011719 40.613281 355.429688 41.179688 355.824219 41.765625 C 356.214844 42.355469 356.578125 42.957031 356.910156 43.582031 C 357.242188 44.203125 357.546875 44.839844 357.816406 45.492188 C 358.085938 46.144531 358.324219 46.808594 358.53125 47.484375 C 358.734375 48.160156 358.90625 48.84375 359.046875 49.539062 C 359.183594 50.230469 359.289062 50.929688 359.359375 51.628906 C 359.429688 52.332031 359.464844 53.039062 359.464844 53.742188 L 359.464844 93.011719 L 15.847656 93.011719 Z M 37.410156 325.957031 C 36.703125 325.957031 36 325.921875 35.296875 325.851562 C 34.59375 325.78125 33.898438 325.675781 33.207031 325.539062 C 32.511719 325.402344 31.828125 325.230469 31.152344 325.023438 C 30.476562 324.816406 29.816406 324.578125 29.164062 324.308594 C 28.511719 324.039062 27.875 323.738281 27.25 323.402344 C 26.628906 323.070312 26.023438 322.707031 25.4375 322.316406 C 24.851562 321.921875 24.285156 321.503906 23.738281 321.054688 C 23.191406 320.605469 22.667969 320.132812 22.171875 319.632812 C 21.671875 319.132812 21.199219 318.609375 20.75 318.066406 C 20.300781 317.519531 19.882812 316.953125 19.488281 316.367188 C 19.097656 315.777344 18.734375 315.175781 18.402344 314.550781 C 18.066406 313.929688 17.765625 313.292969 17.496094 312.640625 C 17.226562 311.988281 16.988281 311.324219 16.78125 310.648438 C 16.578125 309.972656 16.40625 309.289062 16.265625 308.59375 C 16.128906 307.902344 16.023438 307.203125 15.953125 306.503906 C 15.882812 305.800781 15.847656 305.09375 15.847656 304.390625 L 15.847656 97.691406 L 359.464844 97.691406 L 359.464844 304.390625 C 359.464844 305.09375 359.429688 305.800781 359.359375 306.503906 C 359.289062 307.203125 359.183594 307.902344 359.046875 308.59375 C 358.90625 309.289062 358.734375 309.972656 358.53125 310.648438 C 358.324219 311.324219 358.085938 311.988281 357.816406 312.640625 C 357.546875 313.292969 357.242188 313.929688 356.910156 314.550781 C 356.578125 315.175781 356.214844 315.777344 355.824219 316.367188 C 355.429688 316.953125 355.011719 317.519531 354.5625 318.066406 C 354.113281 318.609375 353.640625 319.132812 353.140625 319.632812 C 352.640625 320.132812 352.121094 320.605469 351.574219 321.054688 C 351.027344 321.503906 350.460938 321.921875 349.875 322.316406 C 349.289062 322.707031 348.683594 323.070312 348.0625 323.402344 C 347.4375 323.738281 346.800781 324.039062 346.148438 324.308594 C 345.496094 324.578125 344.832031 324.816406 344.15625 325.023438 C 343.484375 325.230469 342.800781 325.402344 342.105469 325.539062 C 341.414062 325.675781 340.71875 325.78125 340.015625 325.851562 C 339.3125 325.921875 338.609375 325.957031 337.902344 325.957031 Z M 37.410156 325.957031 " fill-opacity="1" fill-rule="nonzero"/></g><path fill="#3f3679" d="M 128.273438 191.722656 C 130.277344 191.671875 132.246094 191.917969 134.175781 192.460938 C 136.105469 193.003906 137.910156 193.820312 139.59375 194.910156 C 141.5625 196.238281 143.214844 197.882812 144.550781 199.847656 C 145.101562 200.664062 145.742188 201.40625 146.472656 202.066406 C 147.203125 202.726562 148.003906 203.289062 148.871094 203.753906 C 149.738281 204.21875 150.652344 204.574219 151.605469 204.816406 C 152.5625 205.058594 153.53125 205.179688 154.515625 205.1875 L 156.855469 205.1875 C 158.003906 205.1875 159.132812 205.03125 160.242188 204.722656 C 161.347656 204.414062 162.394531 203.960938 163.378906 203.367188 C 164.363281 202.773438 165.25 202.058594 166.039062 201.222656 C 166.832031 200.386719 167.492188 199.460938 168.03125 198.441406 C 168.570312 197.457031 168.964844 196.417969 169.214844 195.324219 C 169.464844 194.230469 169.566406 193.125 169.507812 192.003906 C 169.453125 190.882812 169.25 189.789062 168.890625 188.726562 C 168.535156 187.664062 168.039062 186.667969 167.40625 185.742188 C 165.003906 182.191406 162.132812 179.078125 158.785156 176.398438 C 150.832031 170.015625 140.695312 166.78125 128.667969 166.78125 C 124.402344 166.695312 120.203125 167.175781 116.066406 168.222656 C 111.929688 169.265625 108 170.835938 104.285156 172.933594 C 100.785156 174.96875 97.648438 177.457031 94.867188 180.402344 C 92.085938 183.34375 89.777344 186.617188 87.941406 190.226562 C 87.003906 192.175781 86.179688 194.167969 85.464844 196.210938 C 84.753906 198.25 84.15625 200.328125 83.675781 202.433594 C 83.195312 204.542969 82.835938 206.671875 82.59375 208.820312 C 82.351562 210.96875 82.230469 213.121094 82.230469 215.285156 C 82.230469 217.445312 82.351562 219.601562 82.59375 221.75 C 82.835938 223.898438 83.195312 226.027344 83.675781 228.132812 C 84.15625 230.242188 84.753906 232.316406 85.464844 234.359375 C 86.179688 236.398438 87.003906 238.394531 87.941406 240.34375 C 89.777344 243.949219 92.085938 247.226562 94.867188 250.167969 C 97.648438 253.109375 100.785156 255.601562 104.285156 257.636719 C 108 259.734375 111.929688 261.304688 116.066406 262.347656 C 120.203125 263.390625 124.402344 263.871094 128.667969 263.789062 C 140.703125 263.789062 150.835938 260.527344 158.789062 254.101562 C 162.097656 251.4375 164.949219 248.351562 167.34375 244.839844 C 167.976562 243.917969 168.476562 242.921875 168.835938 241.863281 C 169.195312 240.800781 169.40625 239.707031 169.464844 238.589844 C 169.519531 237.46875 169.425781 236.363281 169.175781 235.269531 C 168.925781 234.175781 168.535156 233.136719 167.996094 232.152344 C 167.460938 231.128906 166.796875 230.199219 166.007812 229.359375 C 165.21875 228.523438 164.328125 227.804688 163.34375 227.207031 C 162.355469 226.609375 161.308594 226.15625 160.199219 225.847656 C 159.089844 225.539062 157.957031 225.382812 156.804688 225.382812 L 154.75 225.382812 C 153.753906 225.375 152.773438 225.484375 151.804688 225.710938 C 150.832031 225.941406 149.90625 226.285156 149.019531 226.738281 C 148.132812 227.195312 147.316406 227.75 146.5625 228.402344 C 145.8125 229.058594 145.148438 229.792969 144.574219 230.605469 C 143.222656 232.5625 141.558594 234.203125 139.585938 235.527344 C 137.902344 236.621094 136.097656 237.4375 134.167969 237.980469 C 132.238281 238.527344 130.273438 238.773438 128.265625 238.71875 C 126.964844 238.769531 125.671875 238.671875 124.390625 238.421875 C 123.109375 238.175781 121.875 237.785156 120.683594 237.25 C 119.492188 236.714844 118.378906 236.050781 117.34375 235.261719 C 116.304688 234.46875 115.371094 233.570312 114.542969 232.5625 C 110.996094 228.359375 109.199219 222.546875 109.199219 215.285156 C 109.199219 208.019531 111 202.179688 114.550781 197.9375 C 115.375 196.921875 116.304688 196.015625 117.339844 195.214844 C 118.378906 194.417969 119.488281 193.75 120.679688 193.210938 C 121.871094 192.671875 123.109375 192.277344 124.390625 192.023438 C 125.675781 191.773438 126.96875 191.671875 128.273438 191.722656 Z M 110.964844 194.933594 C 106.691406 200.046875 104.523438 206.894531 104.523438 215.285156 C 104.523438 223.675781 106.695312 230.511719 110.972656 235.582031 C 112.019531 236.847656 113.199219 237.980469 114.507812 238.976562 C 115.816406 239.976562 117.21875 240.8125 118.71875 241.492188 C 120.214844 242.167969 121.773438 242.667969 123.386719 242.992188 C 124.996094 243.3125 126.625 243.449219 128.269531 243.402344 C 130.742188 243.457031 133.164062 243.144531 135.542969 242.464844 C 137.917969 241.78125 140.140625 240.765625 142.207031 239.410156 C 144.667969 237.753906 146.742188 235.707031 148.429688 233.265625 C 149.15625 232.246094 150.078125 231.449219 151.195312 230.886719 C 152.316406 230.320312 153.5 230.046875 154.753906 230.066406 L 156.792969 230.066406 C 157.519531 230.0625 158.238281 230.15625 158.9375 230.347656 C 159.640625 230.542969 160.304688 230.828125 160.925781 231.207031 C 161.550781 231.585938 162.109375 232.039062 162.605469 232.574219 C 163.101562 233.105469 163.519531 233.695312 163.851562 234.34375 C 164.183594 234.953125 164.429688 235.597656 164.585938 236.277344 C 164.742188 236.953125 164.800781 237.640625 164.769531 238.335938 C 164.734375 239.027344 164.605469 239.707031 164.382812 240.363281 C 164.160156 241.023438 163.855469 241.640625 163.460938 242.214844 C 161.328125 245.339844 158.789062 248.089844 155.839844 250.460938 C 148.738281 256.203125 139.59375 259.113281 128.65625 259.113281 C 124.804688 259.195312 121.011719 258.765625 117.273438 257.832031 C 113.539062 256.894531 109.988281 255.484375 106.632812 253.59375 C 103.515625 251.78125 100.722656 249.5625 98.246094 246.941406 C 95.769531 244.324219 93.714844 241.40625 92.082031 238.191406 C 91.230469 236.410156 90.480469 234.585938 89.835938 232.71875 C 89.1875 230.851562 88.644531 228.957031 88.207031 227.027344 C 87.773438 225.101562 87.445312 223.15625 87.226562 221.195312 C 87.007812 219.230469 86.894531 217.261719 86.894531 215.289062 C 86.894531 213.3125 87.007812 211.34375 87.226562 209.378906 C 87.445312 207.417969 87.773438 205.472656 88.207031 203.546875 C 88.644531 201.621094 89.1875 199.722656 89.835938 197.855469 C 90.480469 195.992188 91.230469 194.167969 92.082031 192.382812 C 93.714844 189.171875 95.769531 186.253906 98.246094 183.632812 C 100.722656 181.011719 103.515625 178.792969 106.632812 176.980469 C 109.988281 175.09375 113.539062 173.679688 117.273438 172.746094 C 121.011719 171.808594 124.804688 171.382812 128.65625 171.460938 C 139.59375 171.460938 148.742188 174.351562 155.847656 180.054688 C 158.824219 182.433594 161.378906 185.203125 163.515625 188.359375 C 163.90625 188.9375 164.214844 189.554688 164.433594 190.21875 C 164.65625 190.878906 164.78125 191.554688 164.816406 192.253906 C 164.847656 192.949219 164.785156 193.636719 164.628906 194.316406 C 164.472656 194.992188 164.226562 195.640625 163.890625 196.25 C 163.554688 196.894531 163.140625 197.484375 162.644531 198.015625 C 162.148438 198.542969 161.589844 199 160.96875 199.375 C 160.347656 199.75 159.6875 200.035156 158.984375 200.226562 C 158.285156 200.421875 157.570312 200.515625 156.847656 200.507812 L 154.507812 200.507812 C 153.28125 200.5 152.128906 200.203125 151.050781 199.621094 C 149.972656 199.039062 149.089844 198.234375 148.410156 197.214844 C 146.738281 194.757812 144.667969 192.699219 142.199219 191.035156 C 140.132812 189.683594 137.910156 188.664062 135.535156 187.984375 C 133.160156 187.304688 130.738281 186.992188 128.265625 187.046875 C 126.617188 187 124.988281 187.136719 123.371094 187.464844 C 121.757812 187.792969 120.199219 188.296875 118.703125 188.980469 C 117.203125 189.664062 115.800781 190.507812 114.492188 191.515625 C 113.1875 192.519531 112.015625 193.660156 110.96875 194.9375 Z M 110.964844 194.933594 " fill-opacity="1" fill-rule="nonzero"/><path fill="#3f3679" d="M 211.671875 236.414062 L 209.316406 236.414062 C 208.492188 236.414062 207.675781 236.496094 206.863281 236.65625 C 206.054688 236.816406 205.269531 237.058594 204.507812 237.375 C 203.746094 237.691406 203.019531 238.078125 202.335938 238.535156 C 201.648438 238.996094 201.015625 239.515625 200.429688 240.101562 C 199.847656 240.683594 199.324219 241.320312 198.867188 242.003906 C 198.410156 242.691406 198.019531 243.414062 197.703125 244.179688 C 197.386719 244.941406 197.148438 245.726562 196.988281 246.535156 C 196.828125 247.34375 196.746094 248.164062 196.746094 248.988281 L 196.746094 250.445312 C 196.746094 251.273438 196.828125 252.089844 196.988281 252.898438 C 197.148438 253.710938 197.390625 254.496094 197.707031 255.257812 C 198.019531 256.019531 198.410156 256.742188 198.867188 257.429688 C 199.328125 258.117188 199.847656 258.75 200.429688 259.335938 C 201.015625 259.917969 201.648438 260.441406 202.335938 260.898438 C 203.019531 261.359375 203.746094 261.746094 204.507812 262.0625 C 205.269531 262.378906 206.054688 262.617188 206.863281 262.777344 C 207.675781 262.941406 208.492188 263.019531 209.316406 263.023438 L 211.671875 263.023438 C 212.496094 263.019531 213.3125 262.9375 214.121094 262.777344 C 214.933594 262.617188 215.71875 262.378906 216.480469 262.0625 C 217.242188 261.746094 217.964844 261.355469 218.652344 260.898438 C 219.339844 260.4375 219.972656 259.917969 220.554688 259.335938 C 221.140625 258.75 221.660156 258.117188 222.121094 257.429688 C 222.578125 256.742188 222.964844 256.019531 223.28125 255.257812 C 223.597656 254.496094 223.835938 253.707031 224 252.898438 C 224.160156 252.089844 224.242188 251.273438 224.242188 250.445312 L 224.242188 248.988281 C 224.242188 248.164062 224.160156 247.347656 224 246.535156 C 223.835938 245.726562 223.597656 244.941406 223.28125 244.179688 C 222.964844 243.414062 222.578125 242.691406 222.121094 242.003906 C 221.660156 241.320312 221.140625 240.683594 220.558594 240.101562 C 219.972656 239.515625 219.339844 238.996094 218.652344 238.535156 C 217.964844 238.078125 217.242188 237.691406 216.480469 237.375 C 215.71875 237.058594 214.933594 236.820312 214.125 236.65625 C 213.3125 236.496094 212.496094 236.414062 211.671875 236.414062 Z M 219.5625 250.453125 C 219.5625 250.96875 219.511719 251.484375 219.410156 251.992188 C 219.308594 252.5 219.160156 252.992188 218.960938 253.472656 C 218.761719 253.949219 218.519531 254.40625 218.230469 254.835938 C 217.941406 255.265625 217.617188 255.664062 217.25 256.03125 C 216.882812 256.398438 216.484375 256.726562 216.054688 257.011719 C 215.625 257.300781 215.167969 257.542969 214.691406 257.742188 C 214.210938 257.941406 213.71875 258.09375 213.210938 258.195312 C 212.703125 258.292969 212.191406 258.347656 211.671875 258.347656 L 209.316406 258.347656 C 208.796875 258.347656 208.285156 258.296875 207.777344 258.195312 C 207.269531 258.09375 206.777344 257.941406 206.296875 257.742188 C 205.820312 257.546875 205.363281 257.300781 204.933594 257.015625 C 204.503906 256.726562 204.105469 256.398438 203.738281 256.03125 C 203.371094 255.664062 203.042969 255.265625 202.757812 254.835938 C 202.46875 254.40625 202.226562 253.949219 202.027344 253.472656 C 201.828125 252.992188 201.675781 252.5 201.574219 251.992188 C 201.472656 251.484375 201.421875 250.96875 201.421875 250.453125 L 201.421875 248.992188 C 201.421875 248.476562 201.472656 247.960938 201.574219 247.453125 C 201.675781 246.945312 201.828125 246.453125 202.027344 245.972656 C 202.222656 245.492188 202.46875 245.039062 202.753906 244.609375 C 203.042969 244.175781 203.371094 243.777344 203.738281 243.414062 C 204.105469 243.046875 204.503906 242.71875 204.933594 242.429688 C 205.363281 242.140625 205.820312 241.898438 206.296875 241.699219 C 206.777344 241.5 207.269531 241.351562 207.777344 241.25 C 208.285156 241.148438 208.796875 241.097656 209.316406 241.097656 L 211.671875 241.097656 C 212.191406 241.097656 212.703125 241.148438 213.210938 241.25 C 213.71875 241.351562 214.210938 241.503906 214.691406 241.699219 C 215.167969 241.898438 215.625 242.144531 216.054688 242.429688 C 216.484375 242.71875 216.882812 243.046875 217.25 243.414062 C 217.617188 243.777344 217.945312 244.179688 218.230469 244.609375 C 218.519531 245.039062 218.761719 245.496094 218.960938 245.972656 C 219.160156 246.453125 219.308594 246.945312 219.410156 247.453125 C 219.511719 247.960938 219.5625 248.476562 219.5625 248.992188 Z M 219.5625 250.453125 " fill-opacity="1" fill-rule="nonzero"/><path fill="#3f3679" d="M 224.242188 196.796875 C 224.242188 195.972656 224.160156 195.15625 224 194.34375 C 223.835938 193.535156 223.597656 192.75 223.28125 191.988281 C 222.964844 191.226562 222.578125 190.5 222.121094 189.816406 C 221.660156 189.128906 221.140625 188.492188 220.554688 187.910156 C 219.972656 187.324219 219.339844 186.804688 218.652344 186.347656 C 217.964844 185.886719 217.242188 185.5 216.480469 185.183594 C 215.71875 184.867188 214.933594 184.628906 214.121094 184.464844 C 213.3125 184.304688 212.496094 184.222656 211.671875 184.222656 L 209.316406 184.222656 C 208.492188 184.222656 207.675781 184.304688 206.863281 184.464844 C 206.054688 184.628906 205.269531 184.867188 204.507812 185.183594 C 203.746094 185.5 203.019531 185.886719 202.335938 186.34375 C 201.648438 186.804688 201.015625 187.324219 200.429688 187.910156 C 199.847656 188.492188 199.328125 189.128906 198.867188 189.8125 C 198.410156 190.5 198.019531 191.222656 197.707031 191.988281 C 197.390625 192.75 197.148438 193.535156 196.988281 194.34375 C 196.828125 195.152344 196.746094 195.972656 196.746094 196.796875 L 196.746094 198.253906 C 196.746094 199.082031 196.828125 199.898438 196.988281 200.707031 C 197.148438 201.515625 197.390625 202.304688 197.707031 203.066406 C 198.019531 203.828125 198.410156 204.550781 198.867188 205.238281 C 199.328125 205.925781 199.847656 206.558594 200.429688 207.144531 C 201.015625 207.726562 201.648438 208.25 202.335938 208.707031 C 203.019531 209.164062 203.746094 209.554688 204.507812 209.871094 C 205.269531 210.1875 206.054688 210.425781 206.863281 210.585938 C 207.675781 210.75 208.492188 210.828125 209.316406 210.832031 L 211.671875 210.832031 C 212.496094 210.828125 213.3125 210.746094 214.121094 210.585938 C 214.933594 210.425781 215.71875 210.183594 216.480469 209.871094 C 217.242188 209.554688 217.964844 209.164062 218.652344 208.707031 C 219.339844 208.246094 219.972656 207.726562 220.554688 207.144531 C 221.140625 206.558594 221.660156 205.925781 222.121094 205.238281 C 222.578125 204.550781 222.964844 203.828125 223.28125 203.066406 C 223.597656 202.304688 223.835938 201.515625 224 200.707031 C 224.160156 199.898438 224.242188 199.082031 224.242188 198.253906 Z M 219.5625 198.253906 C 219.5625 198.773438 219.511719 199.285156 219.410156 199.796875 C 219.308594 200.304688 219.160156 200.796875 218.960938 201.277344 C 218.761719 201.753906 218.519531 202.207031 218.230469 202.640625 C 217.941406 203.070312 217.617188 203.46875 217.25 203.835938 C 216.882812 204.203125 216.484375 204.527344 216.054688 204.816406 C 215.625 205.105469 215.167969 205.347656 214.691406 205.546875 C 214.210938 205.746094 213.71875 205.894531 213.210938 205.996094 C 212.703125 206.097656 212.191406 206.148438 211.671875 206.148438 L 209.316406 206.148438 C 208.796875 206.148438 208.285156 206.097656 207.777344 205.996094 C 207.269531 205.894531 206.777344 205.746094 206.296875 205.546875 C 205.820312 205.347656 205.363281 205.105469 204.933594 204.816406 C 204.503906 204.53125 204.105469 204.203125 203.738281 203.835938 C 203.371094 203.46875 203.042969 203.070312 202.757812 202.640625 C 202.46875 202.210938 202.226562 201.753906 202.027344 201.277344 C 201.828125 200.796875 201.675781 200.304688 201.574219 199.796875 C 201.472656 199.289062 201.421875 198.773438 201.421875 198.253906 L 201.421875 196.796875 C 201.421875 196.277344 201.472656 195.765625 201.574219 195.257812 C 201.675781 194.75 201.828125 194.253906 202.027344 193.777344 C 202.226562 193.296875 202.46875 192.84375 202.757812 192.414062 C 203.042969 191.980469 203.371094 191.582031 203.738281 191.21875 C 204.105469 190.851562 204.503906 190.523438 204.933594 190.234375 C 205.363281 189.945312 205.820312 189.703125 206.296875 189.503906 C 206.777344 189.308594 207.269531 189.15625 207.777344 189.054688 C 208.285156 188.953125 208.796875 188.902344 209.316406 188.902344 L 211.671875 188.902344 C 212.191406 188.902344 212.703125 188.953125 213.210938 189.054688 C 213.71875 189.15625 214.210938 189.308594 214.691406 189.507812 C 215.167969 189.703125 215.625 189.949219 216.054688 190.234375 C 216.484375 190.523438 216.882812 190.851562 217.25 191.21875 C 217.617188 191.582031 217.941406 191.984375 218.230469 192.414062 C 218.519531 192.84375 218.761719 193.296875 218.960938 193.777344 C 219.160156 194.257812 219.308594 194.75 219.410156 195.257812 C 219.511719 195.765625 219.5625 196.277344 219.5625 196.796875 Z M 219.5625 198.253906 " fill-opacity="1" fill-rule="nonzero"/><path fill="#3f3679" d="M 263.214844 146.210938 C 263.027344 145.40625 262.761719 144.628906 262.417969 143.878906 C 262.078125 143.125 261.664062 142.414062 261.179688 141.746094 C 260.699219 141.074219 260.15625 140.457031 259.550781 139.894531 C 258.949219 139.332031 258.296875 138.832031 257.59375 138.398438 C 256.890625 137.964844 256.152344 137.601562 255.378906 137.3125 C 254.605469 137.023438 253.8125 136.8125 252.996094 136.679688 C 252.183594 136.546875 251.363281 136.496094 250.535156 136.523438 C 249.710938 136.554688 248.898438 136.664062 248.09375 136.851562 C 247.289062 137.042969 246.511719 137.308594 245.761719 137.648438 C 245.007812 137.992188 244.300781 138.40625 243.628906 138.886719 C 242.960938 139.371094 242.34375 139.914062 241.78125 140.519531 C 241.21875 141.125 240.71875 141.777344 240.285156 142.480469 C 239.851562 143.183594 239.488281 143.921875 239.199219 144.695312 C 238.910156 145.46875 238.699219 146.261719 238.566406 147.078125 C 238.4375 147.894531 238.382812 148.714844 238.414062 149.539062 C 238.441406 150.363281 238.550781 151.179688 238.742188 151.980469 L 268.28125 277.4375 C 268.46875 278.242188 268.734375 279.019531 269.078125 279.769531 C 269.421875 280.523438 269.832031 281.234375 270.316406 281.902344 C 270.796875 282.574219 271.339844 283.1875 271.945312 283.753906 C 272.546875 284.316406 273.203125 284.8125 273.902344 285.246094 C 274.605469 285.683594 275.34375 286.042969 276.117188 286.332031 C 276.890625 286.621094 277.683594 286.832031 278.5 286.964844 C 279.3125 287.097656 280.132812 287.148438 280.957031 287.121094 C 281.785156 287.089844 282.597656 286.980469 283.402344 286.792969 C 284.203125 286.601562 284.980469 286.335938 285.734375 285.996094 C 286.484375 285.652344 287.195312 285.238281 287.863281 284.757812 C 288.535156 284.273438 289.148438 283.730469 289.714844 283.125 C 290.277344 282.523438 290.773438 281.867188 291.207031 281.167969 C 291.640625 280.464844 292.003906 279.726562 292.292969 278.953125 C 292.582031 278.179688 292.792969 277.386719 292.925781 276.570312 C 293.058594 275.753906 293.109375 274.933594 293.078125 274.109375 C 293.050781 273.285156 292.941406 272.46875 292.753906 271.667969 Z M 286.703125 279.457031 C 286.246094 280.039062 285.710938 280.546875 285.109375 280.976562 C 284.507812 281.410156 283.855469 281.75 283.15625 281.996094 C 282.457031 282.246094 281.738281 282.390625 280.996094 282.4375 C 280.257812 282.484375 279.523438 282.425781 278.800781 282.265625 C 278.074219 282.101562 277.386719 281.84375 276.738281 281.488281 C 276.085938 281.132812 275.496094 280.695312 274.96875 280.171875 C 274.441406 279.652344 273.996094 279.066406 273.632812 278.421875 C 273.269531 277.773438 273.003906 277.089844 272.832031 276.367188 L 243.296875 150.90625 C 243.183594 150.402344 243.117188 149.890625 243.101562 149.375 C 243.089844 148.859375 243.125 148.347656 243.210938 147.839844 C 243.296875 147.332031 243.429688 146.835938 243.613281 146.355469 C 243.796875 145.871094 244.023438 145.414062 244.296875 144.976562 C 244.570312 144.539062 244.882812 144.128906 245.238281 143.753906 C 245.589844 143.378906 245.976562 143.039062 246.394531 142.738281 C 246.8125 142.4375 247.257812 142.183594 247.726562 141.96875 C 248.195312 141.753906 248.683594 141.589844 249.183594 141.472656 C 249.6875 141.351562 250.195312 141.285156 250.710938 141.265625 C 251.226562 141.246094 251.738281 141.277344 252.246094 141.359375 C 252.753906 141.441406 253.25 141.574219 253.734375 141.753906 C 254.21875 141.929688 254.679688 142.15625 255.121094 142.425781 C 255.558594 142.695312 255.96875 143.003906 256.347656 143.355469 C 256.726562 143.703125 257.066406 144.085938 257.371094 144.503906 C 257.675781 144.921875 257.9375 145.363281 258.152344 145.832031 C 258.371094 146.296875 258.539062 146.78125 258.664062 147.285156 L 288.199219 272.746094 C 288.476562 273.921875 288.488281 275.097656 288.226562 276.273438 C 287.960938 277.453125 287.457031 278.511719 286.703125 279.457031 Z M 286.703125 279.457031 " fill-opacity="1" fill-rule="nonzero"/><path fill="#3f3679" d="M 43.09375 118.121094 L 191.210938 118.121094 C 191.519531 118.121094 191.820312 118.0625 192.105469 117.941406 C 192.390625 117.824219 192.644531 117.65625 192.863281 117.4375 C 193.082031 117.214844 193.253906 116.964844 193.371094 116.675781 C 193.488281 116.390625 193.550781 116.09375 193.550781 115.78125 C 193.550781 115.472656 193.488281 115.171875 193.371094 114.886719 C 193.253906 114.597656 193.082031 114.347656 192.863281 114.128906 C 192.644531 113.90625 192.390625 113.738281 192.105469 113.621094 C 191.820312 113.5 191.519531 113.441406 191.210938 113.441406 L 43.09375 113.441406 C 42.785156 113.441406 42.484375 113.5 42.199219 113.621094 C 41.914062 113.738281 41.660156 113.90625 41.441406 114.128906 C 41.222656 114.347656 41.050781 114.597656 40.933594 114.886719 C 40.816406 115.171875 40.753906 115.472656 40.753906 115.78125 C 40.753906 116.09375 40.816406 116.390625 40.933594 116.675781 C 41.050781 116.964844 41.222656 117.214844 41.441406 117.4375 C 41.660156 117.65625 41.914062 117.824219 42.199219 117.941406 C 42.484375 118.0625 42.785156 118.121094 43.09375 118.121094 Z M 43.09375 118.121094 " fill-opacity="1" fill-rule="nonzero"/><path fill="#3f3679" d="M 222.914062 118.121094 L 258.261719 118.121094 C 258.574219 118.121094 258.871094 118.0625 259.160156 117.941406 C 259.445312 117.824219 259.699219 117.65625 259.917969 117.4375 C 260.136719 117.214844 260.304688 116.964844 260.425781 116.675781 C 260.542969 116.390625 260.601562 116.09375 260.601562 115.78125 C 260.601562 115.472656 260.542969 115.171875 260.425781 114.886719 C 260.304688 114.597656 260.136719 114.347656 259.917969 114.128906 C 259.699219 113.90625 259.445312 113.738281 259.160156 113.621094 C 258.871094 113.5 258.574219 113.441406 258.261719 113.441406 L 222.914062 113.441406 C 222.605469 113.441406 222.304688 113.5 222.019531 113.621094 C 221.734375 113.738281 221.480469 113.90625 221.261719 114.128906 C 221.042969 114.347656 220.871094 114.597656 220.753906 114.886719 C 220.636719 115.171875 220.574219 115.472656 220.574219 115.78125 C 220.574219 116.09375 220.636719 116.390625 220.753906 116.675781 C 220.871094 116.964844 221.042969 117.214844 221.261719 117.4375 C 221.480469 117.65625 221.734375 117.824219 222.019531 117.941406 C 222.304688 118.0625 222.605469 118.121094 222.914062 118.121094 Z M 222.914062 118.121094 " fill-opacity="1" fill-rule="nonzero"/><path fill="#3f3679" d="M 43.09375 143.339844 L 131.296875 143.339844 C 131.605469 143.339844 131.90625 143.28125 132.191406 143.160156 C 132.480469 143.042969 132.730469 142.871094 132.953125 142.652344 C 133.171875 142.433594 133.339844 142.179688 133.457031 141.894531 C 133.578125 141.609375 133.636719 141.308594 133.636719 141 C 133.636719 140.6875 133.578125 140.390625 133.457031 140.105469 C 133.339844 139.816406 133.171875 139.5625 132.953125 139.34375 C 132.730469 139.125 132.480469 138.957031 132.191406 138.835938 C 131.90625 138.71875 131.605469 138.660156 131.296875 138.660156 L 43.09375 138.660156 C 42.785156 138.660156 42.484375 138.71875 42.199219 138.835938 C 41.914062 138.957031 41.660156 139.125 41.441406 139.34375 C 41.222656 139.5625 41.050781 139.816406 40.933594 140.105469 C 40.816406 140.390625 40.753906 140.6875 40.753906 141 C 40.753906 141.308594 40.816406 141.609375 40.933594 141.894531 C 41.050781 142.179688 41.222656 142.433594 41.441406 142.652344 C 41.660156 142.871094 41.914062 143.042969 42.199219 143.160156 C 42.484375 143.28125 42.785156 143.339844 43.09375 143.339844 Z M 43.09375 143.339844 " fill-opacity="1" fill-rule="nonzero"/><path fill="#3f3679" d="M 225.253906 141 C 225.253906 140.6875 225.195312 140.390625 225.078125 140.105469 C 224.957031 139.816406 224.789062 139.5625 224.570312 139.34375 C 224.351562 139.125 224.097656 138.957031 223.808594 138.835938 C 223.523438 138.71875 223.226562 138.660156 222.914062 138.660156 L 149.015625 138.660156 C 148.707031 138.660156 148.40625 138.71875 148.121094 138.835938 C 147.835938 138.957031 147.582031 139.125 147.363281 139.34375 C 147.140625 139.5625 146.972656 139.816406 146.855469 140.105469 C 146.734375 140.390625 146.675781 140.6875 146.675781 141 C 146.675781 141.308594 146.734375 141.609375 146.855469 141.894531 C 146.972656 142.179688 147.140625 142.433594 147.363281 142.652344 C 147.582031 142.871094 147.835938 143.042969 148.121094 143.160156 C 148.40625 143.28125 148.707031 143.339844 149.015625 143.339844 L 222.914062 143.339844 C 223.226562 143.339844 223.523438 143.28125 223.808594 143.160156 C 224.097656 143.042969 224.351562 142.871094 224.570312 142.652344 C 224.789062 142.433594 224.957031 142.179688 225.078125 141.894531 C 225.195312 141.609375 225.253906 141.308594 225.253906 141 Z M 225.253906 141 " fill-opacity="1" fill-rule="nonzero"/><path fill="#3f3679" d="M 43.09375 284.964844 L 191.210938 284.964844 C 191.519531 284.964844 191.820312 284.902344 192.105469 284.785156 C 192.390625 284.667969 192.644531 284.496094 192.863281 284.277344 C 193.082031 284.058594 193.253906 283.804688 193.371094 283.519531 C 193.488281 283.230469 193.550781 282.933594 193.550781 282.625 C 193.550781 282.3125 193.488281 282.015625 193.371094 281.726562 C 193.253906 281.441406 193.082031 281.1875 192.863281 280.96875 C 192.644531 280.75 192.390625 280.582031 192.105469 280.460938 C 191.820312 280.34375 191.519531 280.285156 191.210938 280.285156 L 43.09375 280.285156 C 42.785156 280.285156 42.484375 280.34375 42.199219 280.460938 C 41.914062 280.582031 41.660156 280.75 41.441406 280.96875 C 41.222656 281.1875 41.050781 281.441406 40.933594 281.726562 C 40.816406 282.015625 40.753906 282.3125 40.753906 282.625 C 40.753906 282.933594 40.816406 283.230469 40.933594 283.519531 C 41.050781 283.804688 41.222656 284.058594 41.441406 284.277344 C 41.660156 284.496094 41.914062 284.667969 42.199219 284.785156 C 42.484375 284.902344 42.785156 284.964844 43.09375 284.964844 Z M 43.09375 284.964844 " fill-opacity="1" fill-rule="nonzero"/><path fill="#3f3679" d="M 258.261719 280.285156 L 222.914062 280.285156 C 222.605469 280.285156 222.304688 280.34375 222.019531 280.460938 C 221.734375 280.582031 221.480469 280.75 221.261719 280.96875 C 221.042969 281.1875 220.871094 281.441406 220.753906 281.726562 C 220.636719 282.015625 220.574219 282.3125 220.574219 282.625 C 220.574219 282.933594 220.636719 283.230469 220.753906 283.519531 C 220.871094 283.804688 221.042969 284.058594 221.261719 284.277344 C 221.480469 284.496094 221.734375 284.667969 222.019531 284.785156 C 222.304688 284.902344 222.605469 284.964844 222.914062 284.964844 L 258.261719 284.964844 C 258.574219 284.964844 258.871094 284.902344 259.160156 284.785156 C 259.445312 284.667969 259.699219 284.496094 259.917969 284.277344 C 260.136719 284.058594 260.304688 283.804688 260.425781 283.519531 C 260.542969 283.230469 260.601562 282.933594 260.601562 282.625 C 260.601562 282.3125 260.542969 282.015625 260.425781 281.726562 C 260.304688 281.441406 260.136719 281.1875 259.917969 280.96875 C 259.699219 280.75 259.445312 280.582031 259.160156 280.460938 C 258.871094 280.34375 258.574219 280.285156 258.261719 280.285156 Z M 258.261719 280.285156 " fill-opacity="1" fill-rule="nonzero"/><path fill="#3f3679" d="M 131.296875 305.5 L 43.09375 305.5 C 42.785156 305.5 42.484375 305.558594 42.199219 305.679688 C 41.914062 305.796875 41.660156 305.96875 41.441406 306.1875 C 41.222656 306.40625 41.050781 306.660156 40.933594 306.945312 C 40.816406 307.230469 40.753906 307.53125 40.753906 307.839844 C 40.753906 308.152344 40.816406 308.449219 40.933594 308.738281 C 41.050781 309.023438 41.222656 309.277344 41.441406 309.496094 C 41.660156 309.714844 41.914062 309.882812 42.199219 310.003906 C 42.484375 310.121094 42.785156 310.179688 43.09375 310.179688 L 131.296875 310.179688 C 131.605469 310.179688 131.90625 310.121094 132.191406 310.003906 C 132.480469 309.882812 132.730469 309.714844 132.953125 309.496094 C 133.171875 309.277344 133.339844 309.023438 133.457031 308.738281 C 133.578125 308.449219 133.636719 308.152344 133.636719 307.839844 C 133.636719 307.53125 133.578125 307.230469 133.457031 306.945312 C 133.339844 306.660156 133.171875 306.40625 132.953125 306.1875 C 132.730469 305.96875 132.480469 305.796875 132.191406 305.679688 C 131.90625 305.558594 131.605469 305.5 131.296875 305.5 Z M 131.296875 305.5 " fill-opacity="1" fill-rule="nonzero"/><path fill="#3f3679" d="M 222.914062 305.5 L 149.015625 305.5 C 148.707031 305.5 148.40625 305.558594 148.121094 305.679688 C 147.835938 305.796875 147.582031 305.96875 147.363281 306.1875 C 147.140625 306.40625 146.972656 306.660156 146.855469 306.945312 C 146.734375 307.230469 146.675781 307.53125 146.675781 307.839844 C 146.675781 308.152344 146.734375 308.449219 146.855469 308.738281 C 146.972656 309.023438 147.140625 309.277344 147.363281 309.496094 C 147.582031 309.714844 147.835938 309.882812 148.121094 310.003906 C 148.40625 310.121094 148.707031 310.179688 149.015625 310.179688 L 222.914062 310.179688 C 223.226562 310.179688 223.523438 310.121094 223.808594 310.003906 C 224.097656 309.882812 224.351562 309.714844 224.570312 309.496094 C 224.789062 309.277344 224.957031 309.023438 225.078125 308.738281 C 225.195312 308.449219 225.253906 308.152344 225.253906 307.839844 C 225.253906 307.53125 225.195312 307.230469 225.078125 306.945312 C 224.957031 306.660156 224.789062 306.40625 224.570312 306.1875 C 224.351562 305.96875 224.097656 305.796875 223.808594 305.679688 C 223.523438 305.558594 223.226562 305.5 222.914062 305.5 Z M 222.914062 305.5 " fill-opacity="1" fill-rule="nonzero"/></svg>